<svg width="22" height="22" viewBox="0 0 22 22" fill="none" xmlns="http://www.w3.org/2000/svg">
<g clip-path="url(#clip0_732_355)">
<path d="M21.5 3.89583C21.372 3.31746 21.1694 2.91369 20.8708 2.58631C20.4122 2.09524 19.8683 1.83333 19.2497 1.82242C18.7698 1.81151 18.2793 1.81151 17.81 1.81151C17.5967 1.81151 17.3941 1.81151 17.1808 1.81151H17.0848C17.0848 1.74603 17.0848 1.66964 17.0848 1.60417C17.0848 1.32044 17.0848 1.05853 17.0955 0.785714C17.1061 0.425595 16.9782 0.174603 16.7116 0.0218254L16.6689 0H16.349L16.317 0.0109127C16.0183 0.141865 15.869 0.392857 15.8904 0.763889C15.901 1.03671 15.901 1.30952 15.8904 1.59325C15.8904 1.65873 15.8904 1.73512 15.8904 1.8006H5.60962C5.60962 1.73512 5.60962 1.66964 5.60962 1.60417C5.60962 1.33135 5.60962 1.04762 5.60962 0.774802C5.62029 0.414683 5.48165 0.16369 5.18303 0.0218254L5.16171 0H4.84176L4.79911 0.0218254C4.52182 0.174603 4.39385 0.425595 4.41518 0.785714C4.42584 1.04762 4.42584 1.30952 4.42584 1.59325C4.42584 1.66964 4.42584 1.73512 4.42584 1.81151C4.40451 1.81151 4.37252 1.81151 4.35119 1.81151C4.06324 1.81151 3.7753 1.81151 3.48735 1.81151C3.15675 1.81151 2.82614 1.81151 2.48487 1.81151C1.20511 1.81151 0.309276 2.54266 0.031994 3.83036C0.0213294 3.84127 0.0213294 3.85218 0.0213294 3.85218L0 3.88492V19.9157L0.0106647 19.9375C0.0213294 19.9811 0.031994 20.0139 0.0426587 20.0575C0.0639881 20.1448 0.0853174 20.2321 0.117311 20.3304C0.415923 21.1925 1.01314 21.749 1.89831 21.9563C1.91964 21.9673 1.95164 21.9673 1.97297 21.9782C1.98363 21.9782 2.00496 21.9891 2.01562 21.9891L2.03695 22H19.463L19.495 21.9891C19.5804 21.9563 19.6763 21.9236 19.7723 21.8909C19.9856 21.8145 20.2096 21.7381 20.4015 21.6181C20.9561 21.2798 21.308 20.745 21.4573 20.0466C21.4573 20.0357 21.468 20.0139 21.4787 20.003C21.4893 19.9921 21.4893 19.9702 21.5 19.9593L21.5107 19.9266V3.92857L21.5 3.89583ZM20.3055 10.7817C20.3055 13.6736 20.3055 16.5546 20.3055 19.4464C20.3055 20.2758 19.8256 20.7778 19.0151 20.7778C13.5121 20.7778 8.00917 20.7778 2.5062 20.7778C1.67435 20.7778 1.20511 20.2867 1.20511 19.4355V7.57341H20.3055V10.7817ZM4.41518 4.24504C4.43651 4.58333 4.69246 4.84524 5.0124 4.84524C5.343 4.84524 5.59896 4.58333 5.60962 4.24504C5.62029 3.96131 5.62029 3.67758 5.60962 3.39385C5.60962 3.28472 5.60962 3.16468 5.60962 3.05556H15.8904V3.28472C15.8904 3.57937 15.8904 3.86309 15.8904 4.15774C15.8904 4.57242 16.1357 4.84524 16.4876 4.84524C16.8395 4.84524 17.0848 4.57242 17.0848 4.15774C17.0848 3.86309 17.0848 3.57937 17.0848 3.28472V3.04464C17.2661 3.04464 17.4474 3.04464 17.6287 3.04464C18.1513 3.03373 18.7058 3.03373 19.2391 3.05556C19.7936 3.07738 20.2522 3.54663 20.2842 4.13591C20.3055 4.67063 20.3056 5.19444 20.2949 5.75099C20.2949 5.93651 20.2949 6.12202 20.2949 6.30754H1.20511C1.20511 6.29663 1.20511 6.29663 1.20511 6.28571V5.82738C1.20511 5.3254 1.20511 4.82341 1.20511 4.31052C1.20511 3.53571 1.69568 3.04464 2.44221 3.03373C2.93279 3.03373 3.4127 3.03373 3.91394 3.03373H4.42584V3.91766V3.99405C4.41518 4.08135 4.41518 4.15774 4.41518 4.24504Z" fill="#3D465B"/>
<path d="M8.9983 16.6974C9.20366 16.8941 9.42481 17 9.63017 17H9.64597C9.86713 17 10.0883 16.879 10.2778 16.6671C11.6206 15.1994 12.9633 13.7317 14.2586 12.3094C14.3692 12.1884 14.4482 12.0522 14.4798 11.916C14.5588 11.5983 14.4008 11.2654 14.1007 11.099C13.7689 10.9174 13.3898 10.9931 13.1371 11.2654C12.8211 11.6134 12.4894 11.9614 12.1735 12.3094L9.59858 15.1389L9.29844 14.8514C8.84033 14.4126 8.39802 13.989 7.93992 13.5653C7.82934 13.4594 7.67137 13.3383 7.46601 13.2778C7.13428 13.187 6.78675 13.3232 6.59719 13.6258C6.42342 13.9284 6.48661 14.2764 6.75516 14.5488C7.5134 15.26 8.25585 15.9711 8.9983 16.6974Z" fill="#3D465B"/>
</g>
<defs>
<clipPath id="clip0_732_355">
<rect width="21.5" height="22" fill="white"/>
</clipPath>
</defs>
</svg>
