<svg width="16" height="18" viewBox="0 0 16 18" fill="none" xmlns="http://www.w3.org/2000/svg">
<path d="M0 15.2932C0 15.2262 0 15.2262 0 15.2932C0 15.2262 0.0669456 15.1593 0.0669456 15.1593C0.0669456 14.6906 0.334728 14.289 0.669456 13.9542C2.2092 12.3476 3.74895 10.8078 5.35565 9.20111C5.62343 9.00027 5.62343 9.00027 5.35565 8.79943C3.74895 7.19274 2.20921 5.65299 0.60251 4.0463C0.334728 3.77851 0.133891 3.44378 0.0669456 3.04211C0.0669456 2.97517 0 2.90822 0 2.77433V2.70738C0 2.64044 0.0669456 2.64044 0.0669456 2.57349C0.133891 1.83709 0.669456 1.23458 1.40586 1.03374C1.4728 1.03374 1.60669 0.966797 1.74059 0.966797C1.80753 0.966797 1.80753 1.03374 1.87448 1.03374C2.41004 1.03374 2.74477 1.30152 3.14644 1.63625C4.75314 3.24295 6.29289 4.7827 7.89958 6.38939C8.03347 6.52328 8.10042 6.52328 8.16736 6.38939C8.16736 6.32245 8.23431 6.32245 8.23431 6.2555C9.841 4.64881 11.3808 3.10906 12.9874 1.50236C13.2552 1.23458 13.59 1.03374 13.9247 0.966797C14.0586 1.03374 14.1925 0.966797 14.2594 0.966797C14.3264 0.966797 14.3264 1.03374 14.3933 1.03374C15.1297 1.10069 15.7322 1.63625 15.9331 2.37265C15.9331 2.50655 16 2.64044 16 2.77433C16 2.84127 15.9331 2.84127 15.9331 2.90822C15.9331 3.44378 15.6653 3.77851 15.3305 4.18019C13.7908 5.71994 12.1841 7.32663 10.6444 8.86638C10.5774 8.93333 10.5774 8.93333 10.5105 9.00027C10.5105 9.06722 10.5105 9.13416 10.5105 9.13416C10.5105 9.20111 10.5774 9.20111 10.6444 9.26805C12.251 10.8747 13.7908 12.4145 15.3975 14.0212C15.6653 14.289 15.8661 14.6237 15.9331 14.9584C15.9331 15.0923 16 15.1593 16 15.2932C16 15.3601 15.9331 15.3601 15.9331 15.4271C15.8661 16.2304 15.3305 16.8329 14.5941 16.9668C14.4603 16.9668 14.3933 17.0337 14.2594 17.0337C14.1925 17.0337 14.1925 16.9668 14.1255 16.9668C13.59 16.9668 13.2552 16.699 12.8536 16.3643C11.3138 14.8245 9.77406 13.2178 8.16736 11.6781C7.89958 11.4103 7.96653 11.4103 7.69874 11.6781C6.09205 13.2848 4.48536 14.8915 2.87866 16.4982C2.61088 16.766 2.3431 16.8999 2.00837 16.9668C2.00837 16.9668 1.94142 17.0337 1.80753 17.0337C1.74059 17.0337 1.74059 16.9668 1.67364 16.9668C0.870293 16.8999 0.267782 16.3643 0.133891 15.6279C0.0669456 15.494 0 15.3601 0 15.2932Z" fill="#ACBADC"/>
</svg>
