<svg width="17" height="22" viewBox="0 0 17 22" fill="none" xmlns="http://www.w3.org/2000/svg">
<g clip-path="url(#clip0_732_2847)">
<path d="M7.05935 0C8.11861 0 9.17787 0 10.1556 0C10.1556 0 10.1556 0 10.2371 0C11.2149 0.244444 11.8668 1.05926 11.8668 2.11852C11.8668 2.28148 11.8668 2.52593 11.8668 2.68889C11.9482 2.68889 12.0297 2.68889 12.1112 2.68889C13.1705 2.68889 14.3112 2.68889 15.3705 2.68889C16.2668 2.68889 16.9186 3.42222 17.0001 4.31852C17.0001 5.13333 17.0001 5.94815 17.0001 6.84444C17.0001 7.25185 16.7556 7.4963 16.3482 7.4963C16.2668 7.4963 16.1038 7.4963 16.0223 7.4963C16.0223 7.98518 15.9408 8.47407 15.9408 8.96296C15.8594 11.2444 15.6964 13.5259 15.6149 15.8889C15.5334 17.2741 15.5334 18.6593 15.4519 20.0444C15.3705 20.8593 14.9631 21.4296 14.2297 21.7556C14.0668 21.837 13.9853 21.837 13.8223 21.9185C10.4001 21.9185 6.97787 21.9185 3.55565 21.9185C3.47416 21.9185 3.47416 21.9185 3.39268 21.837C2.57787 21.6741 2.0075 21.0222 1.92602 20.2074C1.84453 19.8815 1.84453 19.4741 1.84453 19.1481C1.68157 15.563 1.51861 11.9778 1.35565 8.39259C1.35565 8.06667 1.35565 7.82222 1.27416 7.4963C1.19268 7.4963 1.1112 7.4963 1.02972 7.4963C0.540831 7.57778 0.296387 7.33333 0.296387 6.76296C0.296387 6.02963 0.296387 5.2963 0.296387 4.56296C0.296387 3.42222 0.948239 2.77037 2.0075 2.68889C3.06676 2.68889 4.12602 2.68889 5.18528 2.68889C5.26676 2.68889 5.34824 2.68889 5.42972 2.68889C5.42972 2.44444 5.42972 2.2 5.42972 1.95556C5.42972 1.22222 5.75565 0.57037 6.4075 0.244444C6.57046 0.162963 6.81491 0.0814815 7.05935 0ZM14.6371 7.57778C10.6445 7.57778 6.57046 7.57778 2.57787 7.57778C2.57787 8.39259 2.65935 9.12593 2.65935 9.94074C2.74083 12.2222 2.90379 14.5852 2.98528 16.8667C3.06676 17.8444 3.06676 18.9037 3.14824 19.8815C3.14824 20.3704 3.39268 20.6148 3.88157 20.6148C7.05935 20.6148 10.2371 20.6148 13.4964 20.6148C13.5779 20.6148 13.6593 20.6148 13.7408 20.6148C14.0668 20.5333 14.2297 20.2889 14.2297 19.8C14.3927 16.2148 14.5556 12.5481 14.7186 8.96296C14.7186 8.47407 14.6371 7.98519 14.6371 7.57778ZM1.60009 6.19259C6.32602 6.19259 11.0519 6.19259 15.6964 6.19259C15.6964 5.7037 15.6964 5.13333 15.6964 4.64444C15.6964 4.23704 15.6149 4.15556 15.2075 4.15556C10.8075 4.15556 6.4075 4.15556 2.0075 4.15556C1.92602 4.15556 1.92602 4.15556 1.84453 4.15556C1.68157 4.15556 1.51861 4.31852 1.51861 4.48148C1.60009 5.05185 1.60009 5.62222 1.60009 6.19259ZM10.5631 2.77037C10.5631 2.52593 10.5631 2.28148 10.5631 2.03704C10.5631 1.71111 10.3186 1.38519 9.9112 1.38519C9.01491 1.38519 8.20009 1.38519 7.30379 1.38519C7.05935 1.38519 6.73342 1.62963 6.73342 1.95556C6.73342 2.2 6.73342 2.52593 6.73342 2.77037C8.03713 2.77037 9.25935 2.77037 10.5631 2.77037Z" fill="#7C8498"/>
<path d="M6.0816 14.0958C6.0816 15.5624 6.0816 17.0291 6.0816 18.4958C6.0816 18.8217 5.91863 19.0661 5.67419 19.1476C5.42975 19.2291 5.1853 19.2291 5.02234 18.9846C4.85938 18.8217 4.85938 18.6587 4.85938 18.4143C4.85938 16.9476 4.85938 15.4809 4.85938 13.9328C4.85938 12.4661 4.85938 10.9995 4.85938 9.5328C4.85938 8.96242 5.34826 8.6365 5.75567 8.88094C6.00012 9.04391 6.16308 9.28835 6.16308 9.61428C6.0816 11.1624 6.0816 12.6291 6.0816 14.0958Z" fill="#7C8498"/>
<path d="M8.03711 14.0962C8.03711 12.6295 8.03711 11.1629 8.03711 9.6962C8.03711 9.20731 8.44452 8.88138 8.93341 9.04434C9.17785 9.12583 9.34081 9.37027 9.34081 9.6962C9.34081 10.0221 9.34081 10.348 9.34081 10.7555C9.34081 13.3629 9.34081 15.8888 9.34081 18.4962C9.34081 18.5777 9.34081 18.6592 9.34081 18.8221C9.25933 19.148 8.93341 19.3925 8.60748 19.3925C8.28155 19.311 8.03711 19.0666 8.03711 18.6592C8.03711 17.274 8.03711 15.8888 8.03711 14.5036C8.03711 14.2592 8.03711 14.1777 8.03711 14.0962Z" fill="#7C8498"/>
<path d="M12.5185 14.0963C12.5185 15.563 12.5185 17.0296 12.5185 18.4963C12.5185 18.8222 12.3556 19.0667 12.1111 19.1482C11.8667 19.2296 11.6223 19.2296 11.4593 18.9852C11.2963 18.8222 11.2148 18.6593 11.2148 18.4148C11.2148 17.1926 11.2148 16.0519 11.2148 14.8296C11.2148 13.1185 11.2148 11.3259 11.2148 9.61483C11.2148 9.04446 11.6223 8.71853 12.1111 8.96297C12.3556 9.04446 12.5185 9.2889 12.5185 9.69631C12.5185 11.163 12.5185 12.6296 12.5185 14.0963Z" fill="#7C8498"/>
</g>
<defs>
<clipPath id="clip0_732_2847">
<rect width="16.7037" height="22" fill="white" transform="translate(0.296387)"/>
</clipPath>
</defs>
</svg>
