<svg width="20" height="22" viewBox="0 0 20 22" fill="none" xmlns="http://www.w3.org/2000/svg">
<g clip-path="url(#clip0_763_39)">
<path d="M19.9884 2.73573C19.9649 1.23229 18.6285 0.0100652 17.0106 0.0100652C13.4702 -0.000750907 9.58977 -0.000750907 5.14663 0.0100652C3.70466 0.0100652 2.50888 0.907804 2.23924 2.19492C2.15718 2.5843 2.15718 2.99532 2.15718 3.3847C2.15718 3.55775 2.15718 3.73081 2.14545 3.89305C2.14545 3.94714 2.14545 3.9904 2.14545 4.04448C2.09856 4.04448 2.05167 4.04448 2.00477 4.04448C1.78203 4.04448 1.57101 4.04448 1.35999 4.04448C0.574527 4.07693 0.0118067 4.60692 8.34153e-05 5.34242C8.34153e-05 5.53711 8.34153e-05 5.72098 8.34153e-05 5.91567V6.02383C8.34153e-05 6.84586 0.58625 7.37585 1.4655 7.38666C1.65307 7.38666 1.84065 7.38666 2.02822 7.38666H2.12201V9.34438C2.07511 9.34438 2.02822 9.34438 1.98133 9.34438C1.75858 9.34438 1.54756 9.34438 1.32482 9.34438C0.609697 9.3552 0.0235301 9.88519 8.34153e-05 10.5666C-0.0116399 10.7505 8.34153e-05 10.9344 8.34153e-05 11.1182V11.3021C8.34153e-05 12.1349 0.574526 12.6649 1.48895 12.6649C1.67652 12.6649 1.85237 12.6649 2.03994 12.6649H2.12201V14.6227H2.03994C1.85237 14.6227 1.67652 14.6227 1.50067 14.6227C0.58625 14.6227 8.34153e-05 15.1526 8.34153e-05 15.9963C8.34153e-05 16.191 8.34153e-05 16.3857 8.34153e-05 16.5804C8.34153e-05 17.424 0.574527 17.954 1.47722 17.954C1.65307 17.954 1.84065 17.954 2.02822 17.954H2.13373C2.13373 18.0514 2.13373 18.1379 2.13373 18.2244C2.13373 18.5381 2.13373 18.8409 2.13373 19.133C2.15718 20.777 3.47019 21.9776 5.25213 21.9776C6.81134 21.9776 8.42916 21.9776 10.0704 21.9776C12.2979 21.9776 14.5839 21.9776 16.87 21.9668C17.2099 21.9668 17.5499 21.9235 17.8664 21.837C19.156 21.4801 19.9884 20.3985 19.9884 19.0789C19.9884 15.9098 19.9884 12.7406 19.9884 9.57152V7.12708C19.9884 6.70525 19.9884 6.28342 19.9884 5.86159C20.0001 4.85569 20.0118 3.78489 19.9884 2.73573ZM18.8395 9.06316C18.8395 12.4053 18.8395 15.7475 18.8395 19.0897C18.8395 19.9766 18.3354 20.6256 17.4796 20.8419C17.292 20.8852 17.1044 20.9176 16.9051 20.9176C13.2474 20.9176 9.42564 20.9176 5.24041 20.9176C4.18531 20.9176 3.41157 20.2795 3.31779 19.3277C3.28262 18.9924 3.29434 18.6571 3.30606 18.3001C3.30606 18.192 3.30606 18.073 3.31779 17.9648H3.35296C3.50536 17.9648 3.65776 17.9648 3.79844 17.9648C4.65425 17.954 5.25214 17.4024 5.26386 16.6128V16.4938C5.26386 16.2883 5.26386 16.0936 5.26386 15.8881C5.25214 15.1743 4.64252 14.6118 3.86878 14.6118C3.70466 14.6118 3.55225 14.6118 3.38813 14.6118H3.32951V12.6649C3.45847 12.6649 3.5757 12.6649 3.69293 12.6649C4.17359 12.6866 4.60735 12.546 4.90043 12.2647C5.19352 11.9835 5.3342 11.5941 5.2873 11.1939C5.27558 11.075 5.27558 10.9668 5.27558 10.837C5.27558 10.6531 5.27558 10.4584 5.22869 10.2746C5.09973 9.73376 4.64252 9.36602 4.00946 9.32275C3.82189 9.31193 3.63432 9.31193 3.43502 9.31193C3.39985 9.31193 3.3764 9.31193 3.34123 9.31193V7.37585H3.39985C3.56398 7.37585 3.7281 7.37585 3.90395 7.37585C4.66597 7.37585 5.27558 6.81341 5.2873 6.11036C5.2873 5.89404 5.2873 5.68853 5.2873 5.47221V5.35323C5.2873 4.5961 4.68941 4.03366 3.86878 4.01203C3.71638 4.01203 3.56398 4.01203 3.38813 4.01203C3.36468 4.01203 3.32951 4.01203 3.30606 4.01203C3.30606 3.87142 3.31779 3.73081 3.31779 3.5902C3.32951 3.15756 3.34123 2.74655 3.41157 2.35716C3.54053 1.62167 4.2791 1.08086 5.15835 1.08086C9.68355 1.07005 13.4467 1.07005 16.9989 1.08086C18.0188 1.08086 18.8277 1.82717 18.8395 2.77899C18.8512 3.60102 18.8512 4.44468 18.8512 5.25589C18.8512 5.59119 18.8512 5.9373 18.8512 6.2726L18.8395 9.06316ZM2.45026 16.8832C2.39164 16.894 2.33303 16.894 2.27441 16.894C2.00477 16.894 1.72341 16.894 1.45378 16.894C1.25448 16.894 1.17242 16.8291 1.17242 16.6345C1.17242 16.4398 1.16069 16.191 1.17242 15.9422C1.17242 15.78 1.25448 15.7043 1.43033 15.7043C1.86409 15.7043 2.27441 15.7043 2.66128 15.7043C3.05987 15.7043 3.44674 15.7043 3.82189 15.7043C3.99774 15.7043 4.09153 15.7908 4.10325 15.953C4.11497 16.191 4.11497 16.4181 4.10325 16.6345C4.09153 16.8075 4.02119 16.8724 3.82189 16.8724C3.54053 16.8724 3.27089 16.8724 2.98953 16.8724H2.63783L2.45026 16.8832ZM3.00126 10.4152C3.27089 10.4152 3.52881 10.4152 3.79844 10.4152C4.04463 10.4152 4.09153 10.5017 4.09153 10.664C4.10325 10.8911 4.10325 11.129 4.09153 11.3454C4.0798 11.5184 4.00946 11.5833 3.81017 11.5833C2.86058 11.5833 2.13373 11.5941 1.4655 11.5941C1.23103 11.5941 1.17242 11.5401 1.16069 11.3129C1.16069 11.0858 1.16069 10.8803 1.16069 10.6856C1.16069 10.4693 1.23103 10.4152 1.4655 10.4044C1.6179 10.4044 1.78203 10.4044 1.93443 10.4044C2.05167 10.4044 2.1689 10.4044 2.29786 10.4044H2.48543V10.4152H3.00126ZM4.09153 6.05628C4.0798 6.17526 4.04463 6.30505 3.775 6.30505C3.50536 6.30505 3.23572 6.30505 2.96609 6.30505H2.61439H2.26269C1.99305 6.30505 1.72341 6.30505 1.45378 6.30505C1.23103 6.30505 1.16069 6.24015 1.16069 6.03465C1.16069 5.79669 1.16069 5.56955 1.16069 5.36405C1.16069 5.14773 1.27793 5.11528 1.39516 5.11528C2.12201 5.11528 2.90747 5.11528 3.89223 5.13691C3.95085 5.13691 4.06808 5.13691 4.09153 5.35323C4.10325 5.56955 4.10325 5.80751 4.09153 6.05628Z" fill="#3568F0"/>
<path d="M12.9683 10.5877C12.9792 10.5439 12.9683 10.5 12.9683 10.4649L12.9683 10.4211C12.9683 8.47382 12.9683 6.52656 12.9683 4.5793C12.9683 4.56176 12.9683 4.55299 12.9683 4.53545C12.9683 4.48282 12.9683 4.42142 12.9574 4.36002C12.8922 4.13196 12.6965 3.99162 12.4139 4.00039C12.1312 4.00916 11.9355 4.1495 11.9029 4.38633C11.8921 4.42142 11.8921 4.46528 11.8921 4.50036C11.8921 4.5179 11.8921 4.53545 11.8921 4.55299L11.8921 4.59685L11.8921 7.02654L11.8921 10.3685L11.8921 10.4211C11.8921 10.4737 11.8921 10.5263 11.8921 10.5877C11.9138 10.8246 12.1204 10.9912 12.403 11C12.7074 11 12.9357 10.8333 12.9683 10.5877Z" fill="#3568F0"/>
<path d="M15.8225 7.0102C15.7655 7 15.7085 7 15.6705 7H15.642C13.5047 7 11.3674 7 9.23017 7H9.20168C9.15418 7 9.09719 7 9.04019 7.0102C8.82172 7.05102 8.66973 7.22449 8.65073 7.45918C8.63174 7.69388 8.74572 7.88776 8.9452 7.95918C9.04969 8 9.16368 8 9.24917 8C9.87611 8 10.4935 8 11.1205 8C11.339 8 11.5574 8 11.7759 8H12.4313H13.0868C13.9227 8 14.7681 8 15.604 8C15.699 8 15.8035 8 15.908 7.95918C16.1264 7.87755 16.2404 7.68367 16.2119 7.43878C16.1929 7.20408 16.0505 7.04082 15.8225 7.0102Z" fill="#3568F0"/>
<path d="M15.8225 14.0102C15.7655 14 15.7085 14 15.6705 14H15.642C13.5047 14 11.3674 14 9.23017 14H9.20168C9.15418 14 9.09719 14 9.04019 14.0102C8.82172 14.051 8.66973 14.2245 8.65073 14.4592C8.63174 14.6939 8.74572 14.8878 8.9452 14.9592C9.04969 15 9.16368 15 9.24917 15C9.87611 15 10.4935 15 11.1205 15C11.339 15 11.5574 15 11.7759 15H12.4313H13.0868C13.9227 15 14.7681 15 15.604 15C15.699 15 15.8035 15 15.908 14.9592C16.1264 14.8776 16.2404 14.6837 16.2119 14.4388C16.1929 14.2041 16.0505 14.0408 15.8225 14.0102Z" fill="#3568F0"/>
<path d="M15.8225 17.0102C15.7655 17 15.7085 17 15.6705 17H15.642C13.5047 17 11.3674 17 9.23017 17H9.20168C9.15418 17 9.09719 17 9.04019 17.0102C8.82172 17.051 8.66973 17.2245 8.65073 17.4592C8.63174 17.6939 8.74572 17.8878 8.9452 17.9592C9.04969 18 9.16368 18 9.24917 18C9.87611 18 10.4935 18 11.1205 18C11.339 18 11.5574 18 11.7759 18H12.4313H13.0868C13.9227 18 14.7681 18 15.604 18C15.699 18 15.8035 18 15.908 17.9592C16.1264 17.8776 16.2404 17.6837 16.2119 17.4388C16.1929 17.2041 16.0505 17.0408 15.8225 17.0102Z" fill="#3568F0"/>
</g>
<defs>
<clipPath id="clip0_763_39">
<rect width="20" height="22" fill="white"/>
</clipPath>
</defs>
</svg>
