<svg width="20" height="22" viewBox="0 0 20 22" fill="none" xmlns="http://www.w3.org/2000/svg">
<g clip-path="url(#clip0_730_3223)">
<path d="M13.4389 22.0003C9.77979 22.0003 6.12069 22.0003 2.46158 22.0003C2.4394 22.0003 2.41723 21.9782 2.39505 21.9782C0.887056 21.6476 0 20.5454 0 19.0023C0 14.5714 0 10.1406 0 5.70971C0 5.59949 0 5.48927 0 5.357C0.0665292 4.03436 1.17535 2.88807 2.50593 2.79989C2.8164 2.77785 3.12687 2.79989 3.43734 2.79989C3.50387 1.21272 4.87881 -0.0217534 6.43116 0.000290667C9.04797 0.0443788 11.687 0.0223348 14.3038 0.0223348C14.4147 0.0223348 14.5477 0.088467 14.6143 0.154599C16.1666 1.89608 17.6968 3.65961 19.2269 5.40109C19.2935 5.46722 19.3378 5.59949 19.3378 5.70971C19.3378 6.37103 19.3378 7.03235 19.3378 7.69368C19.3378 10.6035 19.3378 13.5133 19.3378 16.4231C19.3378 17.7899 18.3177 19.0023 16.9428 19.2227C16.588 19.2668 16.2331 19.2668 15.8783 19.2889C15.8118 20.2147 15.3904 20.9422 14.6586 21.4933C14.3038 21.7578 13.8824 21.8901 13.4389 22.0003ZM13.1284 1.38907C13.0175 1.38907 12.951 1.38907 12.8623 1.38907C10.7112 1.38907 8.56009 1.38907 6.40898 1.38907C5.43322 1.38907 4.83446 1.98426 4.83446 2.9542C4.83446 7.4071 4.83446 11.86 4.83446 16.335C4.83446 17.2829 5.43322 17.9001 6.3868 17.9001C9.73544 17.9001 13.0619 17.9001 16.4105 17.9001C17.3641 17.9001 17.9629 17.3049 17.9629 16.357C17.9629 13.2929 17.9629 10.2287 17.9629 7.14258C17.9629 7.07644 17.9629 6.98827 17.9629 6.90009C17.6081 6.90009 17.2754 6.90009 16.9428 6.90009C16.4992 6.90009 16.0335 6.94418 15.59 6.87805C14.1264 6.67965 13.1284 5.48927 13.1284 4.03436C13.1284 3.15259 13.1284 2.29288 13.1284 1.38907ZM14.5034 19.2448C14.4147 19.2448 14.326 19.2448 14.2373 19.2448C11.6204 19.2448 8.98144 19.2448 6.36463 19.2448C6.20939 19.2448 6.05416 19.2448 5.9211 19.2227C4.47963 18.9802 3.45952 17.8119 3.45952 16.357C3.45952 12.3891 3.45952 8.39909 3.45952 4.43115C3.45952 4.34298 3.45952 4.2548 3.45952 4.12253C3.08252 4.14458 2.7277 4.14458 2.39505 4.21071C1.75194 4.36502 1.37494 4.91612 1.37494 5.62153C1.37494 10.0965 1.37494 14.5935 1.37494 19.0684C1.37494 20.0163 1.9737 20.6115 2.92729 20.6115C5.52192 20.6115 8.11656 20.6115 10.7334 20.6115C11.5096 20.6115 12.3079 20.6115 13.0841 20.6115C13.8603 20.6115 14.459 20.0384 14.5034 19.2448ZM14.5255 1.41111C14.5255 2.07243 14.5255 2.66763 14.5255 3.28486C14.5255 3.94618 14.7473 4.51933 15.1243 5.02634C15.3682 5.357 15.6787 5.53336 16.1222 5.51131C16.6767 5.48927 17.2311 5.51131 17.7855 5.51131C17.8298 5.51131 17.8964 5.51131 17.9629 5.48927C16.8097 4.12253 15.6787 2.79989 14.5255 1.41111Z" fill="#7C8498"/>
<path d="M11.3986 14.4396C10.3785 14.4396 9.33623 14.4396 8.31612 14.4396C8.00565 14.4396 7.78388 14.3073 7.673 14.0207C7.56212 13.7562 7.60647 13.5137 7.78388 13.2933C7.93912 13.1169 8.13871 13.0508 8.36047 13.0508C8.71529 13.0508 9.07011 13.0508 9.44711 13.0508C11.0882 13.0508 12.7292 13.0508 14.3703 13.0508C14.5033 13.0508 14.6364 13.0508 14.7695 13.0949C15.0799 13.2051 15.2573 13.5137 15.213 13.8223C15.1686 14.153 14.8803 14.3955 14.5255 14.3955C13.461 14.4396 12.4409 14.4396 11.3986 14.4396Z" fill="#7C8498"/>
<path d="M11.3987 11.0009C10.3564 11.0009 9.3363 11.0009 8.294 11.0009C7.96136 11.0009 7.69524 10.7585 7.62871 10.4498C7.56218 10.1412 7.73959 9.8326 8.02789 9.72238C8.16095 9.67829 8.294 9.65625 8.42706 9.65625C8.82624 9.65625 9.22541 9.65625 9.64676 9.65625C11.2213 9.65625 12.818 9.65625 14.3925 9.65625C14.5256 9.65625 14.6586 9.67829 14.7917 9.70034C15.1022 9.81056 15.2796 10.1192 15.2352 10.4278C15.1909 10.7364 14.9247 10.9789 14.6143 11.0009C14.3482 11.023 14.082 11.0009 13.8159 11.0009C12.9732 11.023 12.1971 11.023 11.3987 11.0009C11.3987 11.023 11.3987 11.023 11.3987 11.0009Z" fill="#7C8498"/>
</g>
<defs>
<clipPath id="clip0_730_3223">
<rect width="19.36" height="22" fill="white"/>
</clipPath>
</defs>
</svg>
