<svg width="15" height="15" viewBox="0 0 15 15" fill="none" xmlns="http://www.w3.org/2000/svg">
<path d="M0.000244141 8.66504V6.26514C0.185814 6.16307 0.379569 6.07641 0.579346 6.0061C0.825028 5.93491 1.07942 5.89895 1.33521 5.89917C1.58019 5.92372 1.82494 5.85306 2.01929 5.7019C2.21363 5.55075 2.34264 5.33065 2.37915 5.08716C2.41136 5.02073 2.42384 4.94632 2.41479 4.87305C2.40575 4.79977 2.37528 4.73067 2.32788 4.67407C2.02788 4.31407 1.75709 3.93822 1.46509 3.57422C1.32009 3.39522 1.27212 3.21404 1.44312 3.04004C1.97112 2.50671 2.50455 1.97538 3.04321 1.44604C3.07781 1.4093 3.11933 1.3801 3.16577 1.36035C3.21221 1.3406 3.26228 1.33073 3.31274 1.3313C3.36321 1.33186 3.41324 1.34298 3.45923 1.36377C3.50522 1.38455 3.54656 1.41464 3.58032 1.45215C3.82929 1.61838 4.06486 1.80323 4.28589 2.00513C4.35564 2.10239 4.44444 2.18452 4.54663 2.24683C4.64882 2.30913 4.7627 2.35023 4.8811 2.36768C4.99951 2.38512 5.12026 2.37857 5.23608 2.34839C5.3519 2.31821 5.46009 2.26515 5.55493 2.19214C5.69393 2.10714 5.80614 2.06019 5.81714 1.86719C5.83039 1.59027 5.87069 1.31526 5.93726 1.04614C6.02726 0.692143 6.15631 0.346047 6.26831 -0.00195312H8.66821C8.77848 0.135822 8.86906 0.288412 8.93726 0.451172C9.01476 0.740425 9.06103 1.0371 9.07593 1.33618C9.05 1.57063 9.11403 1.80622 9.25464 1.99561C9.39524 2.185 9.60231 2.31416 9.83423 2.35718C9.91691 2.38948 10.0067 2.39933 10.0945 2.38599C10.1822 2.37265 10.2649 2.33666 10.3342 2.28125C10.7002 1.99325 11.078 1.72104 11.446 1.43604C11.4815 1.40026 11.5242 1.37247 11.571 1.354C11.6179 1.33554 11.6677 1.32688 11.718 1.32886C11.7683 1.33083 11.8178 1.3434 11.863 1.36548C11.9083 1.38756 11.9487 1.41859 11.9812 1.45703C12.4752 1.95103 12.967 2.44769 13.4563 2.94702C13.5045 2.98937 13.5433 3.04149 13.5701 3.09985C13.5968 3.15821 13.6105 3.2217 13.6111 3.28589C13.6117 3.35008 13.5987 3.41359 13.573 3.47241C13.5473 3.53123 13.5096 3.584 13.4622 3.6272C13.1912 3.9642 12.9261 4.30623 12.6741 4.65723C12.6403 4.70151 12.6154 4.752 12.6013 4.80591C12.5872 4.85982 12.5842 4.91603 12.592 4.97119C12.6651 5.2136 12.7623 5.44805 12.8821 5.67114C12.9095 5.71508 12.9456 5.75299 12.988 5.78271C13.0305 5.81244 13.0785 5.83345 13.1292 5.84424C13.5982 5.92724 14.0743 5.97214 14.5403 6.06714C14.7064 6.12957 14.8618 6.21728 15.0012 6.32715V8.72705C14.8154 8.82932 14.6213 8.91599 14.4211 8.98608C14.1757 9.05692 13.9217 9.09287 13.6663 9.09302C13.5446 9.07727 13.4212 9.08602 13.303 9.11865C13.1848 9.15129 13.0741 9.20729 12.9778 9.2832C12.8815 9.35912 12.8013 9.45347 12.7419 9.56079C12.6826 9.66811 12.6452 9.78627 12.6321 9.9082C12.5999 10.0337 12.6145 10.1667 12.6731 10.2822C12.9471 10.6722 13.2462 11.0452 13.5422 11.4192C13.6742 11.5852 13.7423 11.761 13.5803 11.926C13.0463 12.473 12.5042 13.0101 11.9592 13.5471C11.9243 13.5835 11.8821 13.6125 11.8357 13.6323C11.7893 13.6521 11.7397 13.6624 11.6892 13.6624C11.6388 13.6624 11.5886 13.6521 11.5422 13.6323C11.4958 13.6125 11.4541 13.5835 11.4192 13.5471C11.1687 13.3827 10.9327 13.1971 10.7141 12.9922C10.6455 12.8941 10.5575 12.8111 10.4558 12.748C10.3541 12.685 10.2407 12.6433 10.1223 12.6255C10.004 12.6077 9.88357 12.6142 9.76782 12.6445C9.65207 12.6749 9.54335 12.7287 9.44897 12.8022C9.31197 12.8882 9.19726 12.9322 9.18726 13.1272C9.16836 13.4034 9.12876 13.6779 9.06909 13.9482C8.99709 14.3082 9.03408 14.7061 8.73608 14.9941H6.33618C6.22583 14.8568 6.13524 14.7047 6.06714 14.5422C5.98729 14.2425 5.9396 13.9351 5.92505 13.6252C5.94643 13.3965 5.88104 13.1679 5.74194 12.9851C5.60284 12.8023 5.40021 12.6786 5.17407 12.6382C5.09222 12.6034 5.00239 12.5914 4.91431 12.6038C4.82622 12.6161 4.74321 12.6523 4.67407 12.7083C4.31207 12.9993 3.93419 13.2712 3.56519 13.5542C3.53256 13.5888 3.49314 13.6164 3.44946 13.6353C3.40578 13.6541 3.35886 13.6638 3.31128 13.6638C3.2637 13.6638 3.21629 13.6541 3.17261 13.6353C3.12893 13.6164 3.08951 13.5888 3.05688 13.5542C2.53788 13.0402 2.01999 12.5252 1.51099 12.0012C1.47183 11.965 1.44027 11.9213 1.41821 11.8728C1.39616 11.8243 1.38406 11.7718 1.38257 11.7185C1.38108 11.6652 1.39061 11.6122 1.40991 11.5625C1.42922 11.5128 1.4578 11.4675 1.49487 11.4292C1.6706 11.1735 1.86123 10.9279 2.06519 10.6941C2.39419 10.3491 2.55499 10.0071 2.21899 9.57812C2.18099 9.52913 2.19115 9.43924 2.15015 9.39624C2.05615 9.29624 1.95613 9.16421 1.83813 9.13721C1.50513 9.06121 1.15602 9.05403 0.822021 8.97803C0.535021 8.92303 0.179244 9.01204 0.000244141 8.66504ZM5.00024 7.49707C4.99614 7.82424 5.05695 8.14899 5.17944 8.45239C5.30193 8.7558 5.48352 9.03179 5.71362 9.2644C5.94373 9.49702 6.21772 9.6816 6.51978 9.80737C6.82183 9.93315 7.14571 9.99763 7.4729 9.99707C7.80271 10.0044 8.13103 9.94568 8.43774 9.82422C8.74446 9.70276 9.02368 9.5212 9.25903 9.29004C9.49439 9.05888 9.6809 8.78275 9.80786 8.47827C9.93482 8.17379 9.99971 7.84698 9.99829 7.51709C10.0047 7.18706 9.94454 6.85924 9.82202 6.55273C9.6995 6.24623 9.51706 5.96733 9.28491 5.73267C9.05277 5.498 8.77563 5.31234 8.47046 5.18652C8.16529 5.06071 7.83813 4.99737 7.50806 5.00024C7.17811 4.99487 6.85068 5.05568 6.54468 5.1792C6.23868 5.30272 5.96056 5.48632 5.72681 5.71924C5.49305 5.95216 5.30797 6.2296 5.18335 6.53516C5.05873 6.84071 4.99703 7.16808 5.00122 7.49805L5.00024 7.49707Z" fill="#3D465B"/>
</svg>
