<svg width="22" height="22" viewBox="0 0 22 22" fill="none" xmlns="http://www.w3.org/2000/svg">
<path d="M15.3138 14.558C14.1275 13.3718 12.8334 12.0776 11.6472 10.8914C11.5393 10.7835 11.5393 10.7835 11.5393 10.6757C11.5393 10.1365 11.5393 9.48941 11.5393 8.9502V7.00902C11.5393 6.79333 11.4315 6.57765 11.2158 6.46981C11.1079 6.36196 10.8923 6.46981 10.7844 6.46981C10.5687 6.57765 10.5687 6.79333 10.5687 7.00902C10.5687 7.44039 10.5687 7.97961 10.5687 8.41098C10.5687 8.62667 10.5687 8.84235 10.5687 9.05804C10.5687 9.27373 10.5687 9.38157 10.5687 9.59726C10.5687 10.0286 10.5687 10.46 10.5687 10.9992C10.5687 11.2149 10.6766 11.4306 10.7844 11.6463C11.9707 12.8326 13.0491 13.911 14.2354 15.0973L15.3138 16.1757C15.5295 16.3914 15.6374 16.3914 15.7452 16.3914C15.853 16.3914 15.9609 16.3914 16.0687 16.2835C16.1766 16.1757 16.1766 16.0678 16.1766 15.96C16.1766 15.8522 16.0687 15.6365 15.9609 15.4208L15.3138 14.558Z" fill="#3568F0"/>
<path d="M11 4.42065C11.3236 4.42065 11.5392 4.20496 11.5392 3.88143C11.5392 3.66575 11.4314 3.45006 11.3236 3.34222C11.2157 3.23437 11.1079 3.23438 11 3.23438C10.7843 3.23438 10.4608 3.34222 10.5687 3.88143C10.5687 4.20496 10.6765 4.42065 11 4.42065Z" fill="#3568F0"/>
<path d="M3.77457 10.5684C3.55888 10.5684 3.34319 10.6762 3.23535 10.784C3.23535 10.784 3.23535 10.8919 3.23535 11.1076C3.23535 11.4311 3.45104 11.5389 3.77457 11.5389C4.20594 11.5389 4.31378 11.3233 4.42163 11.1076V10.9997C4.42163 10.6762 4.20594 10.5684 3.77457 10.5684Z" fill="#3568F0"/>
<path d="M18.2255 11.5389C18.4412 11.5389 18.6569 11.4311 18.7647 11.3233C18.8726 11.2154 18.8726 11.1076 18.8726 10.9997C18.8726 10.6762 18.6569 10.5684 18.3333 10.5684C17.902 10.5684 17.6863 10.784 17.6863 10.9997V11.1076C17.6863 11.3233 17.902 11.5389 18.2255 11.5389Z" fill="#3568F0"/>
<path d="M11.1079 17.5781C10.8922 17.5781 10.6765 17.5781 10.5687 17.7938C10.4608 18.0095 10.4608 18.2252 10.5687 18.5487C10.6765 18.6566 10.7844 18.7644 11 18.7644C11.3236 18.7644 11.4314 18.5487 11.4314 18.2252C11.5393 17.9017 11.3236 17.686 11.1079 17.5781Z" fill="#3568F0"/>
<path d="M6.14708 5.49885C5.93139 5.39101 5.71571 5.39101 5.50002 5.49885C5.28434 5.71454 5.28434 5.93022 5.50002 6.14591C5.60786 6.25375 5.71571 6.3616 5.82355 6.46944C5.93139 6.46944 6.03924 6.46944 6.03924 6.46944C6.14708 6.46944 6.14708 6.46944 6.25492 6.46944C6.36277 6.46944 6.47061 6.3616 6.47061 6.25375C6.47061 6.25375 6.47061 6.25375 6.47061 6.14591C6.47061 5.71454 6.36277 5.60669 6.14708 5.49885Z" fill="#3568F0"/>
<path d="M15.9608 5.39105C15.853 5.49889 15.7451 5.60673 15.6373 5.71458C15.5294 5.82242 15.5294 6.0381 15.6373 6.14595C15.6373 6.25379 15.7451 6.36163 15.853 6.36163C15.853 6.36163 15.853 6.36163 15.9608 6.36163C16.2843 6.36163 16.5 6.14595 16.6079 5.93026C16.7157 5.71458 16.7157 5.49889 16.5 5.2832C16.3922 5.39105 16.0687 5.2832 15.9608 5.39105Z" fill="#3568F0"/>
<path d="M5.93146 15.5293C5.71578 15.5293 5.50009 15.745 5.39225 15.8528C5.28441 16.0685 5.28441 16.2842 5.50009 16.4999C5.60793 16.6077 5.71578 16.6077 5.82362 16.6077C5.93146 16.6077 6.03931 16.6077 6.14715 16.4999C6.25499 16.392 6.36284 16.2842 6.47068 16.1764C6.47068 16.1764 6.57852 15.9607 6.47068 15.745C6.36284 15.6371 6.14715 15.5293 5.93146 15.5293Z" fill="#3568F0"/>
<path d="M11 22C4.96078 22 0 17.0392 0 11C0 4.96078 4.96078 0 11 0C17.0392 0 22 4.96078 22 11C22 17.0392 17.0392 22 11 22ZM11 1.07843C5.5 1.07843 1.07843 5.5 1.07843 11C1.07843 16.5 5.5 20.9216 11 20.9216C16.5 20.9216 20.9216 16.5 20.9216 11C20.9216 5.5 16.5 1.07843 11 1.07843Z" fill="#3568F0"/>
</svg>
