<svg width="26" height="18" viewBox="0 0 26 18" fill="none" xmlns="http://www.w3.org/2000/svg">
<g clip-path="url(#clip0_732_2845)">
<path d="M25.2964 2.75726C25.2964 1.57349 24.5354 0.8125 23.3516 0.8125C16.4463 0.8125 9.34374 0.8125 2.21296 0.8125C1.05738 0.8125 0.296387 1.57349 0.296387 2.75726C0.296387 6.92862 0.296387 11.0718 0.296387 15.2432C0.296387 15.3841 0.296387 15.5532 0.324572 15.7223C0.521866 16.6242 1.22649 17.1879 2.21296 17.1879C4.7496 17.1879 7.31443 17.1879 9.85107 17.1879H12.7823H15.7417C16.7282 17.1879 17.7147 17.1879 18.7011 17.1879C20.2513 17.1879 21.8296 17.1879 23.3798 17.1879C24.5354 17.1879 25.2964 16.4269 25.2964 15.2714C25.2964 11.2409 25.2964 7.04136 25.2964 2.75726ZM24.1972 15.215C24.1972 15.4123 24.1972 15.6096 24.0844 15.7505L17.5737 7.91509L24.1972 2.61633C24.1972 2.6727 24.1972 2.72907 24.1972 2.75726C24.1972 5.97034 24.1972 9.18341 24.1972 12.3965V15.215ZM8.86459 8.61972L9.42829 9.07067C9.90744 9.46526 10.3866 9.83167 10.8657 10.1981C12.1059 11.1845 13.4587 11.1845 14.6989 10.1981C15.178 9.83167 15.629 9.43708 16.1081 9.07067L16.7 8.59153L22.9289 16.0605H2.63573L8.86459 8.61972ZM11.5422 9.35252C9.11826 7.40776 6.66617 5.46301 4.24227 3.51825L2.26933 1.9399H23.2953C21.5478 3.32096 19.8285 4.70202 18.0811 6.11126C16.7282 7.21047 15.3753 8.2815 14.0224 9.38071C13.2051 10.029 12.3877 10.029 11.5422 9.35252ZM8.01905 7.91509L1.50834 15.7505C1.45197 15.6378 1.42378 15.525 1.3956 15.4123C1.36741 15.3559 1.3956 15.2995 1.3956 15.215C1.3956 15.1868 1.3956 15.1586 1.3956 15.1304C1.3956 11.0436 1.3956 6.92862 1.3956 2.84181C1.3956 2.78544 1.3956 2.70089 1.3956 2.61633L8.01905 7.91509Z" fill="#7C8498"/>
</g>
<defs>
<clipPath id="clip0_732_2845">
<rect width="25" height="16.3754" fill="white" transform="translate(0.296387 0.8125)"/>
</clipPath>
</defs>
</svg>
