<svg width="21" height="22" viewBox="0 0 21 22" fill="none" xmlns="http://www.w3.org/2000/svg">
<g clip-path="url(#clip0_730_3250)">
<path d="M20.6549 2.73573C20.6314 1.23229 19.295 0.0100652 17.6771 0.0100652C14.1367 -0.000750907 10.2563 -0.000750907 5.81313 0.0100652C4.37116 0.0100652 3.17538 0.907804 2.90574 2.19492C2.82368 2.5843 2.82368 2.99532 2.82368 3.3847C2.82368 3.55775 2.82368 3.73081 2.81196 3.89305C2.81196 3.94714 2.81196 3.9904 2.81196 4.04448C2.76506 4.04448 2.71817 4.04448 2.67128 4.04448C2.44853 4.04448 2.23751 4.04448 2.02649 4.04448C1.24103 4.07693 0.678311 4.60692 0.666587 5.34242C0.666587 5.53711 0.666587 5.72098 0.666587 5.91567V6.02383C0.666587 6.84586 1.25275 7.37585 2.132 7.38666C2.31958 7.38666 2.50715 7.38666 2.69472 7.38666H2.78851V9.34438C2.74162 9.34438 2.69472 9.34438 2.64783 9.34438C2.42509 9.34438 2.21407 9.34438 1.99132 9.34438C1.2762 9.3552 0.690034 9.88519 0.666587 10.5666C0.654864 10.7505 0.666587 10.9344 0.666587 11.1182V11.3021C0.666587 12.1349 1.24103 12.6649 2.15545 12.6649C2.34302 12.6649 2.51887 12.6649 2.70645 12.6649H2.78851V14.6227H2.70645C2.51887 14.6227 2.34302 14.6227 2.16717 14.6227C1.25275 14.6227 0.666587 15.1526 0.666587 15.9963C0.666587 16.191 0.666587 16.3857 0.666587 16.5804C0.666587 17.424 1.24103 17.954 2.14373 17.954C2.31958 17.954 2.50715 17.954 2.69472 17.954H2.80023C2.80023 18.0514 2.80023 18.1379 2.80023 18.2244C2.80023 18.5381 2.80023 18.8409 2.80023 19.133C2.82368 20.777 4.13669 21.9776 5.91864 21.9776C7.47784 21.9776 9.09566 21.9776 10.7369 21.9776C12.9644 21.9776 15.2504 21.9776 17.5365 21.9668C17.8764 21.9668 18.2164 21.9235 18.5329 21.837C19.8225 21.4801 20.6549 20.3985 20.6549 19.0789C20.6549 15.9098 20.6549 12.7406 20.6549 9.57152V7.12708C20.6549 6.70525 20.6549 6.28342 20.6549 5.86159C20.6666 4.85569 20.6783 3.78489 20.6549 2.73573ZM19.506 9.06316C19.506 12.4053 19.506 15.7475 19.506 19.0897C19.506 19.9766 19.0019 20.6256 18.1461 20.8419C17.9585 20.8852 17.7709 20.9176 17.5716 20.9176C13.9139 20.9176 10.0921 20.9176 5.90692 20.9176C4.85182 20.9176 4.07808 20.2795 3.98429 19.3277C3.94912 18.9924 3.96084 18.6571 3.97257 18.3001C3.97257 18.192 3.97257 18.073 3.98429 17.9648H4.01946C4.17186 17.9648 4.32427 17.9648 4.46495 17.9648C5.32075 17.954 5.91864 17.4024 5.93036 16.6128V16.4938C5.93036 16.2883 5.93036 16.0936 5.93036 15.8881C5.91864 15.1743 5.30903 14.6118 4.53529 14.6118C4.37116 14.6118 4.21876 14.6118 4.05463 14.6118H3.99601V12.6649C4.12497 12.6649 4.2422 12.6649 4.35944 12.6649C4.84009 12.6866 5.27386 12.546 5.56694 12.2647C5.86002 11.9835 6.0007 11.5941 5.95381 11.1939C5.94209 11.075 5.94209 10.9668 5.94209 10.837C5.94209 10.6531 5.94209 10.4584 5.89519 10.2746C5.76624 9.73376 5.30903 9.36602 4.67597 9.32275C4.48839 9.31193 4.30082 9.31193 4.10152 9.31193C4.06635 9.31193 4.04291 9.31193 4.00774 9.31193V7.37585H4.06635C4.23048 7.37585 4.39461 7.37585 4.57046 7.37585C5.33247 7.37585 5.94209 6.81341 5.95381 6.11036C5.95381 5.89404 5.95381 5.68853 5.95381 5.47221V5.35323C5.95381 4.5961 5.35592 4.03366 4.53529 4.01203C4.38288 4.01203 4.23048 4.01203 4.05463 4.01203C4.03118 4.01203 3.99601 4.01203 3.97257 4.01203C3.97257 3.87142 3.98429 3.73081 3.98429 3.5902C3.99601 3.15756 4.00774 2.74655 4.07808 2.35716C4.20703 1.62167 4.9456 1.08086 5.82485 1.08086C10.3501 1.07005 14.1132 1.07005 17.6654 1.08086C18.6853 1.08086 19.4943 1.82717 19.506 2.77899C19.5177 3.60102 19.5177 4.44468 19.5177 5.25589C19.5177 5.59119 19.5177 5.9373 19.5177 6.2726L19.506 9.06316ZM3.11676 16.8832C3.05815 16.894 2.99953 16.894 2.94091 16.894C2.67128 16.894 2.38992 16.894 2.12028 16.894C1.92098 16.894 1.83892 16.8291 1.83892 16.6345C1.83892 16.4398 1.8272 16.191 1.83892 15.9422C1.83892 15.78 1.92098 15.7043 2.09683 15.7043C2.5306 15.7043 2.94091 15.7043 3.32778 15.7043C3.72638 15.7043 4.11325 15.7043 4.48839 15.7043C4.66424 15.7043 4.75803 15.7908 4.76975 15.953C4.78148 16.191 4.78148 16.4181 4.76975 16.6345C4.75803 16.8075 4.68769 16.8724 4.48839 16.8724C4.20703 16.8724 3.9374 16.8724 3.65604 16.8724H3.30434L3.11676 16.8832ZM3.66776 10.4152C3.9374 10.4152 4.19531 10.4152 4.46495 10.4152C4.71114 10.4152 4.75803 10.5017 4.75803 10.664C4.76975 10.8911 4.76975 11.129 4.75803 11.3454C4.74631 11.5184 4.67597 11.5833 4.47667 11.5833C3.52708 11.5833 2.80023 11.5941 2.132 11.5941C1.89754 11.5941 1.83892 11.5401 1.8272 11.3129C1.8272 11.0858 1.8272 10.8803 1.8272 10.6856C1.8272 10.4693 1.89754 10.4152 2.132 10.4044C2.28441 10.4044 2.44853 10.4044 2.60094 10.4044C2.71817 10.4044 2.8354 10.4044 2.96436 10.4044H3.15193V10.4152H3.66776ZM4.75803 6.05628C4.74631 6.17526 4.71114 6.30505 4.4415 6.30505C4.17186 6.30505 3.90223 6.30505 3.63259 6.30505H3.28089H2.92919C2.65955 6.30505 2.38992 6.30505 2.12028 6.30505C1.89754 6.30505 1.8272 6.24015 1.8272 6.03465C1.8272 5.79669 1.8272 5.56955 1.8272 5.36405C1.8272 5.14773 1.94443 5.11528 2.06166 5.11528C2.78851 5.11528 3.57397 5.11528 4.55873 5.13691C4.61735 5.13691 4.73458 5.13691 4.75803 5.35323C4.76975 5.56955 4.76975 5.80751 4.75803 6.05628Z" fill="#3D465B"/>
<path d="M13.6348 10.5877C13.6457 10.5439 13.6348 10.5 13.6348 10.4649L13.6348 10.4211C13.6348 8.47382 13.6348 6.52656 13.6348 4.5793C13.6348 4.56176 13.6348 4.55299 13.6348 4.53545C13.6348 4.48282 13.6348 4.42142 13.6239 4.36002C13.5587 4.13196 13.363 3.99162 13.0804 4.00039C12.7977 4.00916 12.6021 4.1495 12.5694 4.38633C12.5586 4.42142 12.5586 4.46528 12.5586 4.50036C12.5586 4.5179 12.5586 4.53545 12.5586 4.55299L12.5586 4.59685L12.5586 7.02654L12.5586 10.3685L12.5586 10.4211C12.5586 10.4737 12.5586 10.5263 12.5586 10.5877C12.5803 10.8246 12.7869 10.9912 13.0695 11C13.3739 11 13.6022 10.8333 13.6348 10.5877Z" fill="#3D465B"/>
<path d="M16.4891 7.0102C16.4321 7 16.3751 7 16.3371 7H16.3086C14.1713 7 12.0341 7 9.8968 7H9.8683C9.82081 7 9.76381 7 9.70682 7.0102C9.48834 7.05102 9.33636 7.22449 9.31736 7.45918C9.29836 7.69388 9.41235 7.88776 9.61183 7.95918C9.71632 8 9.83031 8 9.9158 8C10.5427 8 11.1602 8 11.7871 8C12.0056 8 12.2241 8 12.4425 8H13.098H13.7534C14.5893 8 15.4347 8 16.2706 8C16.3656 8 16.4701 8 16.5746 7.95918C16.7931 7.87755 16.9071 7.68367 16.8786 7.43878C16.8596 7.20408 16.7171 7.04082 16.4891 7.0102Z" fill="#3D465B"/>
<path d="M16.4891 14.0102C16.4321 14 16.3751 14 16.3371 14H16.3086C14.1713 14 12.0341 14 9.8968 14H9.8683C9.82081 14 9.76381 14 9.70682 14.0102C9.48834 14.051 9.33636 14.2245 9.31736 14.4592C9.29836 14.6939 9.41235 14.8878 9.61183 14.9592C9.71632 15 9.83031 15 9.9158 15C10.5427 15 11.1602 15 11.7871 15C12.0056 15 12.2241 15 12.4425 15H13.098H13.7534C14.5893 15 15.4347 15 16.2706 15C16.3656 15 16.4701 15 16.5746 14.9592C16.7931 14.8776 16.9071 14.6837 16.8786 14.4388C16.8596 14.2041 16.7171 14.0408 16.4891 14.0102Z" fill="#3D465B"/>
<path d="M16.4891 17.0102C16.4321 17 16.3751 17 16.3371 17H16.3086C14.1713 17 12.0341 17 9.8968 17H9.8683C9.82081 17 9.76381 17 9.70682 17.0102C9.48834 17.051 9.33636 17.2245 9.31736 17.4592C9.29836 17.6939 9.41235 17.8878 9.61183 17.9592C9.71632 18 9.83031 18 9.9158 18C10.5427 18 11.1602 18 11.7871 18C12.0056 18 12.2241 18 12.4425 18H13.098H13.7534C14.5893 18 15.4347 18 16.2706 18C16.3656 18 16.4701 18 16.5746 17.9592C16.7931 17.8776 16.9071 17.6837 16.8786 17.4388C16.8596 17.2041 16.7171 17.0408 16.4891 17.0102Z" fill="#3D465B"/>
</g>
<defs>
<clipPath id="clip0_730_3250">
<rect width="20" height="22" fill="white" transform="translate(0.666626)"/>
</clipPath>
</defs>
</svg>
