<svg width="120" height="34" viewBox="0 0 120 34" fill="none" xmlns="http://www.w3.org/2000/svg">
<path d="M45.7508 3.01071C45.9629 2.38071 46.3165 1.9607 46.8822 1.7507C47.4479 1.6107 48.155 1.4707 49.0743 1.4707C50.0643 1.4707 50.7714 1.5407 51.3371 1.7507C51.9028 1.8907 52.2564 2.31071 52.4685 3.01071L57.5599 19.3907C57.5599 19.4607 57.4891 19.5307 57.3477 19.5307H54.0242C53.8828 19.5307 53.7413 19.4607 53.6706 19.3207L52.3271 14.9807C52.2564 14.8407 52.1857 14.7007 51.9735 14.7007H46.0336C45.8922 14.7007 45.7508 14.7707 45.68 14.9807L44.3365 19.2507C44.2658 19.3907 44.1951 19.5307 43.9829 19.5307H40.6594C40.518 19.5307 40.4473 19.4607 40.4473 19.3907L45.7508 3.01071ZM49.3571 5.25071C49.2864 5.04071 49.2864 4.97071 49.2157 4.90071C49.2157 4.83071 49.145 4.83071 49.0036 4.83071C48.9328 4.83071 48.7914 4.97071 48.7207 5.25071L46.9529 10.9907V11.0607C46.9529 11.0607 46.9529 11.0607 46.9529 11.1307C46.9529 11.2707 47.0236 11.3407 47.165 11.3407H50.9835C51.125 11.3407 51.1957 11.2707 51.1957 11.1307C51.1957 11.1307 51.1957 11.1307 51.1957 11.0607V10.9907L49.3571 5.25071Z" fill="#3D465B"/>
<path d="M59.1859 7.98172C59.1859 7.56172 59.3274 7.21172 59.6809 6.93172C60.0345 6.65172 60.3881 6.51172 60.7416 6.51172H65.9744C66.3987 6.51172 66.823 6.58172 67.1765 6.79172C67.5301 7.00172 67.813 7.21172 68.0251 7.35172C68.0958 7.42172 68.2372 7.56172 68.3079 7.63172C68.4494 7.77172 68.5201 7.77172 68.5201 7.77172C68.5201 7.77172 68.5908 7.77172 68.6615 7.70172C68.7322 7.63172 68.8029 7.56172 68.8737 7.49172C68.9444 7.42172 69.0858 7.28172 69.1565 7.14172C69.2979 7.00172 69.4394 6.93172 69.6515 6.86172C70.0051 6.65172 70.3586 6.58172 70.7122 6.58172C71.0658 6.58172 71.2779 6.51172 71.4193 6.51172H73.2579C73.965 6.51172 74.6014 6.65172 75.1671 6.93172C75.7328 7.21172 76.2278 7.49172 76.6521 7.91172C77.0764 8.33172 77.3592 8.75172 77.6421 9.24172C77.8542 9.73173 77.9957 10.2217 77.9957 10.7117V19.3917C77.9957 19.5317 77.9249 19.6717 77.7128 19.6717H75.1671C74.955 19.6717 74.8843 19.6017 74.8843 19.3917V10.9917C74.8843 10.7117 74.8136 10.5017 74.6721 10.2917C74.5307 10.0817 74.3893 9.87173 74.2479 9.73173C74.0357 9.59172 73.8943 9.45172 73.6821 9.38172C73.47 9.31172 73.2579 9.24172 73.1164 9.24172H71.4193C71.1365 9.24172 70.7829 9.38172 70.5001 9.59172C70.2172 9.80173 70.0758 10.1517 70.0758 10.5717V19.3217C70.0758 19.4617 70.0051 19.6017 69.7929 19.6017H67.1765C67.0351 19.6017 66.8937 19.5317 66.8937 19.3217V10.6417C66.8937 10.2917 66.7523 10.0117 66.3987 9.73173C66.0451 9.45172 65.6916 9.31172 65.338 9.31172H62.9337C62.7216 9.31172 62.5802 9.38172 62.4388 9.52173C62.2973 9.66173 62.2266 9.87173 62.2266 10.0817V19.3917C62.2266 19.5317 62.1559 19.6717 61.9438 19.6717H59.3981C59.2567 19.6717 59.1152 19.6017 59.1152 19.3917V7.98172H59.1859Z" fill="#3D465B"/>
<path d="M92.5616 14.4917C92.5616 15.4717 92.4909 16.3117 92.2788 17.0117C92.0666 17.6417 91.8545 18.2017 91.5009 18.5517C91.1473 18.9717 90.6524 19.1817 90.0867 19.3917C89.5209 19.5317 88.8845 19.6017 88.1067 19.6017H83.581C82.8032 19.6017 82.1668 19.4617 81.6718 19.1817C81.1768 18.9017 80.7525 18.5517 80.4697 18.1317C80.1868 17.7117 79.9747 17.1517 79.8332 16.5917C79.6918 16.0317 79.6211 15.4717 79.6211 14.8417V10.4317C79.6211 9.80173 79.6918 9.31173 79.9039 8.82172C80.1161 8.33172 80.3989 7.91172 80.7525 7.56172C81.1061 7.21172 81.5304 6.93172 82.0253 6.79172C82.5203 6.58172 83.0153 6.51172 83.581 6.51172H88.7431C89.1674 6.51172 89.6624 6.58172 90.1574 6.79172C90.6524 6.93172 91.0059 7.21172 91.4302 7.56172C91.7838 7.91172 92.0666 8.26172 92.3495 8.75172C92.5616 9.24172 92.703 9.73173 92.703 10.3617V14.4917H92.5616ZM89.4502 10.8517C89.4502 10.6417 89.3795 10.5017 89.2381 10.2917C89.0967 10.1517 88.9552 10.0117 88.7431 9.87173C88.531 9.73173 88.3188 9.66173 88.036 9.66173C87.7531 9.59173 87.541 9.59173 87.2581 9.59173H84.5003C84.2882 9.59173 84.076 9.59173 83.8639 9.66173C83.6517 9.73173 83.4396 9.80173 83.2982 9.87173C83.086 9.94173 82.9446 10.0817 82.8739 10.2917C82.7325 10.4317 82.6618 10.6417 82.6618 10.9217V14.9817C82.6618 15.3317 82.7325 15.6117 82.8739 15.8217C83.0153 16.0317 83.2275 16.2417 83.4396 16.3117C83.6517 16.4517 83.8639 16.5217 84.1467 16.5917C84.4296 16.6617 84.6417 16.6617 84.8539 16.6617H87.1874C87.8238 16.6617 88.3188 16.5217 88.7431 16.2417C89.1674 15.9617 89.4502 15.6117 89.4502 15.1917V13.1617V10.8517Z" fill="#3D465B"/>
<path d="M97.7956 6.51103H102.604C103.382 6.51103 104.089 6.65103 104.655 7.00103C105.22 7.35103 105.715 7.77103 106.069 8.33103C106.423 8.89103 106.705 9.59103 106.918 10.431C107.13 11.271 107.2 12.181 107.2 13.161C107.2 13.931 107.13 14.701 106.918 15.471C106.705 16.241 106.423 16.9411 106.069 17.5711C105.715 18.2011 105.22 18.6911 104.655 19.1111C104.089 19.5311 103.382 19.6711 102.604 19.6711H94.6842C94.5428 19.6711 94.4014 19.6011 94.4014 19.3911V1.82102C94.4014 1.68102 94.4721 1.54102 94.6842 1.54102H97.3006C97.442 1.54102 97.5835 1.61102 97.5835 1.82102V6.23103C97.5127 6.44103 97.5835 6.51103 97.7956 6.51103ZM97.5127 16.311C97.5127 16.451 97.5835 16.5911 97.7956 16.5911H100.553C101.048 16.5911 101.543 16.521 101.968 16.451C102.392 16.381 102.746 16.171 103.099 15.891C103.382 15.611 103.665 15.331 103.806 14.841C103.948 14.421 104.089 13.861 104.089 13.161C104.089 12.391 104.018 11.831 103.806 11.341C103.665 10.851 103.382 10.501 103.099 10.221C102.816 9.94104 102.392 9.80103 101.968 9.66103C101.543 9.59103 101.048 9.52103 100.553 9.52103H97.7956C97.6542 9.52103 97.5127 9.59103 97.5127 9.80103V16.311Z" fill="#3D465B"/>
<path d="M109.322 6.51172H116.464C117.1 6.51172 117.666 6.65172 118.09 6.93172C118.514 7.21172 118.868 7.56172 119.151 7.98172C119.434 8.40172 119.646 8.89172 119.787 9.45172C119.929 10.0117 119.999 10.5017 119.999 11.0617V19.3917C119.999 19.5317 119.929 19.6717 119.716 19.6717H110.877C110.382 19.6717 109.958 19.5317 109.604 19.1817C109.251 18.9017 109.039 18.4817 108.827 18.0617C108.614 17.6417 108.544 17.2217 108.473 16.8017C108.402 16.3817 108.402 16.0317 108.402 15.8217C108.402 15.4017 108.473 14.9817 108.544 14.4917C108.614 14.0017 108.827 13.5817 109.039 13.1617C109.251 12.7417 109.534 12.3917 109.887 12.1117C110.241 11.8317 110.665 11.6917 111.16 11.6917H115.403C115.827 11.6917 116.181 11.6217 116.464 11.4117C116.746 11.2017 116.888 10.9217 116.888 10.6417C116.888 10.4317 116.817 10.1517 116.605 9.94173C116.464 9.73173 116.181 9.59172 115.969 9.59172H109.251C109.109 9.59172 108.968 9.52173 108.968 9.31172V6.72172C109.109 6.58172 109.18 6.51172 109.322 6.51172ZM116.676 16.6617C116.817 16.6617 116.959 16.5917 116.959 16.3817V14.8417C116.959 14.7017 116.888 14.5617 116.676 14.5617H112.15C111.938 14.5617 111.726 14.6317 111.584 14.8417C111.443 15.0517 111.372 15.2617 111.372 15.4717C111.372 15.7517 111.443 16.0317 111.655 16.2417C111.797 16.4517 112.079 16.5917 112.362 16.5917H116.676V16.6617Z" fill="#3D465B"/>
<path d="M54.0949 25.9023H55.1556L55.9334 31.9924H54.6606L54.2363 28.3523L52.8221 31.2924H51.8321L50.4178 28.3523L49.9935 31.9924H48.7207L49.4985 25.9023H50.5592L52.3978 29.8224L54.0949 25.9023Z" fill="#3D465B"/>
<path d="M65.9053 25.9023H69.7945V27.0223H67.2488V28.4223H69.5117V29.5424H67.2488V30.8024H69.9359V31.9224H65.976V25.9023H65.9053Z" fill="#3D465B"/>
<path d="M79.9053 31.9924V25.9023H82.3095C84.0773 25.9023 85.0673 27.2323 85.0673 28.9824C85.0673 30.7324 84.0773 31.9924 82.3095 31.9924H79.9053ZM81.2488 30.8024H82.3802C83.3702 30.8024 83.8652 29.9624 83.8652 28.9824C83.8652 28.0023 83.3702 27.0923 82.3802 27.0923H81.2488V30.8024Z" fill="#3D465B"/>
<path d="M96.3803 25.9023V31.9924H95.1074V25.9023H96.3803Z" fill="#3D465B"/>
<path d="M112.079 30.732C111.513 31.572 110.594 32.062 109.533 32.062C107.765 32.062 106.422 30.662 106.422 28.982C106.422 27.232 107.765 25.832 109.533 25.832C110.665 25.832 111.584 26.322 112.079 27.092L111.018 27.792C110.665 27.302 110.17 27.022 109.533 27.022C108.543 27.022 107.765 27.862 107.765 28.912C107.765 29.962 108.543 30.802 109.533 30.802C110.17 30.802 110.735 30.452 111.089 29.962L112.079 30.732Z" fill="#3D465B"/>
<path d="M12.4457 29.1874H7.63717C5.86934 29.1874 4.45508 27.7874 4.45508 26.0374V21.2773H12.4457V29.1874Z" fill="#3D465B"/>
<path d="M33.8716 16.87H16.9004V0H27.1539C30.9017 0 33.9423 3.01001 33.9423 6.72002V16.87H33.8716ZM29.346 28.9101V21.28H16.9004V33.6001H24.6082C27.2246 33.6001 29.346 31.5001 29.346 28.9101ZM12.4455 4.55001H4.8085C2.1214 4.55001 0 6.72002 0 9.31002V16.87H12.4455V4.55001Z" fill="#3568F0"/>
</svg>
