<svg width="16" height="16" viewBox="0 0 16 16" fill="none" xmlns="http://www.w3.org/2000/svg">
<path d="M14.4214 6.42142H9.57944V1.5795C9.57944 1.16059 9.41318 0.758858 9.11697 0.462643C8.82075 0.166429 8.41891 0 8 0C7.79262 -3.54603e-08 7.58734 0.0408783 7.39576 0.120267C7.20418 0.199656 7.03007 0.316017 6.88348 0.4627C6.73688 0.609382 6.62063 0.783495 6.54135 0.975124C6.46208 1.16675 6.42133 1.37212 6.42145 1.5795V6.42142H1.57854C1.37116 6.42142 1.16589 6.46228 0.974307 6.54166C0.782724 6.62105 0.608621 6.73741 0.462024 6.8841C0.315427 7.03078 0.199178 7.20492 0.119901 7.39655C0.0406243 7.58818 -0.000121005 7.79355 2.69926e-07 8.00093C2.69926e-07 8.41959 0.166434 8.82109 0.462475 9.11714C0.758516 9.41318 1.15988 9.5795 1.57854 9.5795H6.42145V14.4223C6.42145 14.841 6.58766 15.2425 6.8837 15.5385C7.17974 15.8346 7.58133 16.0009 8 16.0009C8.41875 16.0009 8.82033 15.8346 9.11652 15.5386C9.4127 15.2426 9.5792 14.8411 9.57944 14.4223V9.58319H14.4214C14.6288 9.58319 14.8339 9.54237 15.0255 9.46303C15.217 9.3837 15.3909 9.26741 15.5375 9.12083C15.6841 8.97424 15.8005 8.80023 15.8799 8.60871C15.9592 8.41719 16 8.21192 16 8.00462C16.0006 7.79693 15.9603 7.59114 15.8812 7.39908C15.8022 7.20703 15.686 7.03247 15.5393 6.88539C15.3927 6.73832 15.2184 6.62162 15.0266 6.542C14.8348 6.46238 14.6291 6.42142 14.4214 6.42142Z" fill="#ACBADC"/>
</svg>
