<svg width="22" height="22" viewBox="0 0 22 22" fill="none" xmlns="http://www.w3.org/2000/svg">
<g clip-path="url(#clip0_730_3261)">
<path d="M8.99436 0C13.4758 0.0625 17.2365 3.3125 17.8946 7.71875C17.9573 8.09375 17.9573 8.4375 17.9887 8.8125C17.9887 8.96875 18.02 9.03125 18.1767 9.125C20.7465 10.4687 22.0314 12.5937 22.0001 15.5C22.0001 16.5625 21.6867 17.5625 21.1539 18.5C21.0599 18.6562 21.0599 18.7812 21.0912 18.9375C21.2793 19.5625 21.436 20.1562 21.5927 20.7812C21.7493 21.4062 21.4046 21.75 20.7778 21.5937C20.1511 21.4375 19.5243 21.25 18.8975 21.0937C18.7721 21.0625 18.6154 21.0937 18.5214 21.125C15.1055 23.0312 10.812 21.6875 9.08838 18.1875C9.0257 18.0312 8.93168 18 8.77499 17.9687C7.23938 17.9375 5.79778 17.5312 4.48154 16.75C4.32485 16.6562 4.19949 16.6562 4.04279 16.6875C3.13396 16.9375 2.25647 17.1875 1.34764 17.4062C0.720857 17.5625 0.344789 17.2187 0.532823 16.5937C0.783535 15.6875 1.03425 14.7812 1.25362 13.875C1.28496 13.75 1.25362 13.625 1.22228 13.5312C-1.8176 8.25 1.03425 1.65625 6.98866 0.25C7.64678 0.125 8.33624 0.09375 8.99436 0ZM1.91174 16.0937C2.63254 15.9062 3.322 15.7187 4.01146 15.5312C4.35618 15.4375 4.6069 15.4687 4.92029 15.6562C6.51858 16.625 8.24222 17 10.0599 16.75C14.4787 16.1562 17.4559 12.0625 16.7038 7.6875C15.9516 3.3125 11.6582 0.4375 7.33339 1.40625C2.0371 2.59375 -0.501365 8.59375 2.38183 13.1562C2.53852 13.4375 2.56986 13.6562 2.50718 13.9687C2.28781 14.6562 2.09977 15.3437 1.91174 16.0937ZM17.926 10.3437C17.0172 14.5312 14.51 17.0625 10.2793 17.9687C10.3106 18 10.3106 18.0625 10.3419 18.125C11.4388 19.8437 12.9744 20.7812 15.0115 20.875C16.1397 20.9375 17.2052 20.625 18.1454 20C18.3647 19.875 18.5841 19.8125 18.8348 19.9062C19.2109 20.0312 19.587 20.125 19.963 20.2187C20.0257 20.2187 20.0884 20.2187 20.1824 20.25C20.057 19.8125 19.963 19.4062 19.8377 19C19.7436 18.7187 19.8063 18.5 19.9317 18.25C21.1226 16.1875 21.0912 14.1562 19.8063 12.1562C19.3676 11.3437 18.7095 10.75 17.926 10.3437Z" fill="#3D465B"/>
</g>
<path d="M9.29898 12.2972C9.27308 12.5267 9.13493 12.6701 8.93635 12.6892C8.72912 12.7178 8.56507 12.6031 8.496 12.3833C8.46146 12.2781 8.46146 12.173 8.46146 12.0774L8.46146 12.0774L8.46146 9.54425L8.46146 8.88468L8.46146 8.22511L8.46146 7.56554L8.46146 5.68241L8.46146 5.68241C8.46146 5.59637 8.46146 5.48167 8.496 5.37652C8.55644 5.17578 8.72049 5.06107 8.91908 5.08019C9.11766 5.09931 9.26445 5.25225 9.29898 5.47211L9.29898 12.2972ZM9.29898 12.2972L9.42259 12.3159C9.43263 12.2492 9.43262 12.1841 9.43262 12.1463L9.43262 12.1443L9.43262 12.1156L9.43262 12.103L9.43262 12.0904L9.43262 12.0778L9.43262 12.0652L9.43262 12.0526L9.43262 12.04L9.43262 12.0274L9.43262 12.0148L9.43262 12.0022L9.43262 11.9896L9.43262 11.977L9.43262 11.9644L9.43262 11.9518L9.43262 11.9392L9.43262 11.9266L9.43262 11.914L9.43262 11.9014L9.43262 11.8888L9.43262 11.8762L9.43262 11.8636L9.43262 11.851L9.43262 11.8384L9.43262 11.8258L9.43262 11.8132L9.43262 11.8006L9.43262 11.788L9.43262 11.7754L9.43262 11.7628L9.43262 11.7502L9.43262 11.7376L9.43262 11.725L9.43262 11.7124L9.43262 11.6998L9.43262 11.6872L9.43262 11.6746L9.43262 11.6619L9.43262 11.6493L9.43262 11.6367L9.43262 11.6241L9.43262 11.6115L9.43262 11.5989L9.43262 11.5863L9.43262 11.5737L9.43262 11.5611L9.43262 11.5485L9.43262 11.5359L9.43262 11.5233L9.43262 11.5107L9.43262 11.4981L9.43262 11.4855L9.43262 11.4729L9.43262 11.4603L9.43262 11.4477L9.43262 11.4351L9.43262 11.4225L9.43262 11.4099L9.43262 11.3973L9.43262 11.3847L9.43262 11.3721L9.43262 11.3595L9.43262 11.3469L9.43262 11.3343L9.43262 11.3217L9.43262 11.3091L9.43262 11.2965L9.43262 11.2839L9.43262 11.2713L9.43262 11.2587L9.43262 11.2461L9.43262 11.2335L9.43262 11.2209L9.43262 11.2083L9.43262 11.1957L9.43262 11.1831L9.43262 11.1705L9.43262 11.1579L9.43262 11.1453L9.43262 11.1327L9.43262 11.1201L9.43262 11.1075L9.43262 11.0948L9.43262 11.0822L9.43262 11.0696L9.43262 11.057L9.43262 11.0444L9.43262 11.0318L9.43262 11.0192L9.43262 11.0066L9.43262 10.994L9.43262 10.9814L9.43262 10.9688L9.43262 10.9562L9.43262 10.9436L9.43262 10.931L9.43262 10.9184L9.43262 10.9058L9.43262 10.8932L9.43262 10.8806L9.43262 10.868L9.43262 10.8554L9.43262 10.8428L9.43262 10.8302L9.43262 10.8176L9.43262 10.805L9.43262 10.7924L9.43262 10.7798L9.43262 10.7672L9.43262 10.7546L9.43262 10.742L9.43262 10.7294L9.43262 10.7168L9.43262 10.7042L9.43262 10.6916L9.43262 10.679L9.43262 10.6664L9.43262 10.6538L9.43262 10.6412L9.43262 10.6286L9.43262 10.616L9.43262 10.6034L9.43262 10.5908L9.43262 10.5782L9.43262 10.5656L9.43262 10.553L9.43262 10.5404L9.43262 10.5277L9.43262 10.5151L9.43262 10.5025L9.43262 10.4899L9.43262 10.4773L9.43262 10.4647L9.43262 10.4521L9.43262 10.4395L9.43262 10.4269L9.43262 10.4143L9.43262 10.4017L9.43262 10.3891L9.43262 10.3765L9.43262 10.3639L9.43262 10.3513L9.43262 10.3387L9.43262 10.3261L9.43262 10.3135L9.43262 10.3009L9.43262 10.2883L9.43262 10.2757L9.43262 10.2631L9.43262 10.2505L9.43262 10.2379L9.43262 10.2253L9.43262 10.2127L9.43262 10.2001L9.43262 10.1875L9.43262 10.1749L9.43262 10.1623L9.43262 10.1497L9.43262 10.1371L9.43262 10.1245L9.43262 10.1119L9.43262 10.0993L9.43262 10.0867L9.43262 10.0741L9.43262 10.0615L9.43262 10.0489L9.43262 10.0363L9.43262 10.0237L9.43262 10.0111L9.43262 9.99846L9.43262 9.98585L9.43262 9.97325L9.43262 9.96065L9.43262 9.94805L9.43262 9.93544L9.43262 9.92284L9.43262 9.91024L9.43262 9.89764L9.43262 9.88504L9.43262 9.87243L9.43262 9.85983L9.43262 9.84723L9.43262 9.83463L9.43262 9.82202L9.43262 9.80942L9.43262 9.79682L9.43262 9.78422L9.43262 9.77162L9.43262 9.75901L9.43262 9.74641L9.43262 9.73381L9.43262 9.72121L9.43262 9.7086L9.43262 9.696L9.43262 9.6834L9.43262 9.6708L9.43262 9.6582L9.43262 9.64559L9.43262 9.63299L9.43262 9.62039L9.43262 9.60779L9.43262 9.59518L9.43262 9.58258L9.43262 9.56998L9.43262 9.55738L9.43262 9.54478L9.43262 9.53217L9.43262 9.51957L9.43262 9.50697L9.43262 9.49437L9.43262 9.48176L9.43262 9.46916L9.43262 9.45656L9.43262 9.44396L9.43262 9.43136L9.43262 9.41875L9.43262 9.40615L9.43262 9.39355L9.43262 9.38095L9.43262 9.36834L9.43262 9.35574L9.43262 9.34314L9.43262 9.33054L9.43262 9.31793L9.43262 9.30533L9.43262 9.29273L9.43262 9.28013L9.43262 9.26753L9.43262 9.25492L9.43262 9.24232L9.43262 9.22972L9.43262 9.21712L9.43262 9.20451L9.43262 9.19191L9.43262 9.17931L9.43262 9.16671L9.43262 9.15411L9.43262 9.1415L9.43262 9.1289L9.43262 9.1163L9.43262 9.1037L9.43262 9.09109L9.43262 9.07849L9.43262 9.06589L9.43262 9.05329L9.43262 9.04069L9.43262 9.02808L9.43262 9.01548L9.43262 9.00288L9.43262 8.99028L9.43262 8.97768L9.43262 8.96507L9.43262 8.95247L9.43262 8.93987L9.43262 8.92727L9.43262 8.91466L9.43262 8.90206L9.43262 8.88946L9.43262 8.87686L9.43262 8.86426L9.43262 8.85165L9.43262 8.83905L9.43262 8.82645L9.43262 8.81385L9.43262 8.80124L9.43262 8.78864L9.43262 8.77604L9.43262 8.76344L9.43262 8.75084L9.43262 8.73823L9.43262 8.72563L9.43262 8.71303L9.43262 8.70043L9.43262 8.68782L9.43262 8.67522L9.43262 8.66262L9.43262 8.65002L9.43262 8.63742L9.43262 8.62481L9.43262 8.61221L9.43262 8.59961L9.43262 8.58701L9.43262 8.5744L9.43262 8.5618L9.43262 8.5492L9.43262 8.5366L9.43262 8.524L9.43262 8.51139L9.43262 8.49879L9.43262 8.48619L9.43262 8.47359L9.43262 8.46098L9.43262 8.44838L9.43262 8.43578L9.43262 8.42318L9.43262 8.41058L9.43262 8.39797L9.43262 8.38537L9.43262 8.37277L9.43262 8.36017L9.43262 8.34756L9.43262 8.33496L9.43262 8.32236L9.43262 8.30976L9.43262 8.29716L9.43262 8.28455L9.43262 8.27195L9.43262 8.25935L9.43262 8.24675L9.43262 8.23414L9.43262 8.22154L9.43262 8.20894L9.43262 8.19634L9.43262 8.18374L9.43262 8.17113L9.43262 8.15853L9.43262 8.14593L9.43262 8.13333L9.43262 8.12072L9.43262 8.10812L9.43262 8.09552L9.43262 8.08292L9.43262 8.07032L9.43262 8.05771L9.43262 8.04511L9.43262 8.03251L9.43262 8.01991L9.43262 8.0073L9.43262 7.9947L9.43262 7.9821L9.43262 7.9695L9.43262 7.9569L9.43262 7.94429L9.43262 7.93169L9.43262 7.91909L9.43262 7.90649L9.43262 7.89388L9.43262 7.88128L9.43262 7.86868L9.43262 7.85608L9.43262 7.84348L9.43262 7.83087L9.43262 7.81827L9.43262 7.80567L9.43262 7.79307L9.43262 7.78046L9.43262 7.76786L9.43262 7.75526L9.43262 7.74266L9.43262 7.73006L9.43262 7.71745L9.43262 7.70485L9.43262 7.69225L9.43262 7.67965L9.43262 7.66704L9.43262 7.65444L9.43262 7.64184L9.43262 7.62924L9.43262 7.61664L9.43262 7.60403L9.43262 7.59143L9.43262 7.57883L9.43262 7.56623L9.43262 7.55362L9.43262 7.54102L9.43262 7.52842L9.43262 7.51582L9.43262 7.50322L9.43262 7.49061L9.43262 7.47801L9.43262 7.46541L9.43262 7.45281L9.43262 7.4402L9.43262 7.4276L9.43262 7.415L9.43262 7.4024L9.43262 7.3898L9.43262 7.37719L9.43262 7.36459L9.43262 7.35199L9.43262 7.33939L9.43262 7.32678L9.43262 7.31418L9.43262 7.30158L9.43262 7.28898L9.43262 7.27638L9.43262 7.26377L9.43262 7.25117L9.43262 7.23857L9.43262 7.22597L9.43262 7.21336L9.43262 7.20076L9.43262 7.18816L9.43262 7.17556L9.43262 7.16296L9.43262 7.15035L9.43262 7.13775L9.43262 7.12515L9.43262 7.11255L9.43262 7.09994L9.43262 7.08734L9.43262 7.07474L9.43262 7.06214L9.43262 7.04954L9.43262 7.03693L9.43262 7.02433L9.43262 7.01173L9.43262 6.99913L9.43262 6.98652L9.43262 6.97392L9.43262 6.96132L9.43262 6.94872L9.43262 6.93612L9.43262 6.92351L9.43262 6.91091L9.43262 6.89831L9.43262 6.88571L9.43262 6.8731L9.43262 6.8605L9.43262 6.8479L9.43262 6.8353L9.43262 6.8227L9.43262 6.81009L9.43262 6.79749L9.43262 6.78489L9.43262 6.77229L9.43262 6.75968L9.43262 6.74708L9.43262 6.73448L9.43262 6.72188L9.43262 6.70928L9.43262 6.69667L9.43262 6.68407L9.43262 6.67147L9.43262 6.65887L9.43262 6.64626L9.43262 6.63366L9.43262 6.62106L9.43262 6.60846L9.43262 6.59586L9.43262 6.58325L9.43262 6.57065L9.43262 6.55805L9.43262 6.54545L9.43262 6.53284L9.43262 6.52024L9.43262 6.50764L9.43262 6.49504L9.43262 6.48244L9.43262 6.46983L9.43262 6.45723L9.43262 6.44463L9.43262 6.43203L9.43262 6.41942L9.43262 6.40682L9.43262 6.39422L9.43262 6.38162L9.43262 6.36902L9.43262 6.35641L9.43262 6.34381L9.43262 6.33121L9.43262 6.31861L9.43262 6.306L9.43262 6.2934L9.43262 6.2808L9.43262 6.2682L9.43262 6.2556L9.43262 6.24299L9.43262 6.23039L9.43262 6.21779L9.43262 6.20519L9.43262 6.19258L9.43262 6.17998L9.43262 6.16738L9.43262 6.15478L9.43262 6.14218L9.43262 6.12957L9.43262 6.11697L9.43262 6.10437L9.43262 6.09177L9.43262 6.07916L9.43262 6.06656L9.43262 6.05396L9.43262 6.04136L9.43262 6.02876L9.43262 6.01615L9.43262 6.00355L9.43262 5.99095L9.43262 5.97835L9.43262 5.96574L9.43262 5.95314L9.43262 5.94054L9.43262 5.92794L9.43262 5.91534L9.43262 5.90273L9.43262 5.89013L9.43262 5.87753L9.43262 5.86493L9.43262 5.85232L9.43262 5.83972L9.43262 5.82712L9.43262 5.81452L9.43262 5.80192L9.43262 5.78931L9.43262 5.77671L9.43262 5.76411L9.43262 5.75151L9.43262 5.7389L9.43262 5.7263L9.43262 5.7137L9.43262 5.7011L9.43262 5.6885L9.43262 5.67589L9.43262 5.66329L9.43262 5.63461L9.43262 5.63189C9.43262 5.58536 9.43263 5.52018 9.42259 5.4535L9.42259 5.4535L9.42247 5.45271C9.38066 5.18656 9.19596 4.98127 8.93106 4.95577C8.66947 4.93058 8.45355 5.08613 8.37676 5.339M9.29898 12.2972L8.37676 5.339M8.37676 5.339C8.33641 5.46288 8.33644 5.59365 8.33646 5.6769C8.33646 5.67876 8.33646 5.6806 8.33646 5.68241L8.33646 5.68611L8.33646 5.6898L8.33646 5.6935L8.33646 5.69719L8.33646 5.70089L8.33646 5.70459L8.33646 5.70828L8.33646 5.71198L8.33646 5.71567L8.33646 5.71937L8.33646 5.72306L8.33646 5.72675L8.33646 5.73045L8.33646 5.73414L8.33646 5.73784L8.33646 5.74153L8.33646 5.74522L8.33646 5.74891L8.33646 5.75261L8.33646 5.7563L8.33646 5.75999L8.33646 5.76368L8.33646 5.76738L8.33646 5.77107L8.33646 5.77476L8.33646 5.77845L8.33646 5.78214L8.33646 5.78583L8.33646 5.78952L8.33646 5.79321L8.33646 5.7969L8.33646 5.80059L8.33646 5.80428L8.33646 5.80797L8.33646 5.81166L8.33646 5.81535L8.33646 5.81904L8.33646 5.82273L8.33646 5.82642L8.33646 5.83011L8.33646 5.8338L8.33646 5.83749L8.33646 5.84117L8.33646 5.84486L8.33646 5.84855L8.33646 5.85224L8.33646 5.85593L8.33646 5.85961L8.33646 5.8633L8.33646 5.86699L8.33646 5.87067L8.33646 5.87436L8.33646 5.87805L8.33646 5.88173L8.33646 5.88542L8.33646 5.8891L8.33646 5.89279L8.33646 5.89648L8.33646 5.90016L8.33646 5.90385L8.33646 5.90753L8.33646 5.91122L8.33646 5.9149L8.33646 5.91858L8.33646 5.92227L8.33646 5.92595L8.33646 5.92964L8.33646 5.93332L8.33646 5.937L8.33646 5.94069L8.33646 5.94437L8.33646 5.94805L8.33646 5.95174L8.33646 5.95542L8.33646 5.9591L8.33646 5.96279L8.33646 5.96647L8.33646 5.97015L8.33646 5.97383L8.33646 5.97751L8.33646 5.9812L8.33646 5.98488L8.33646 5.98856L8.33646 5.99224L8.33646 5.99592L8.33646 5.9996L8.33646 6.00328L8.33646 6.00696L8.33646 6.01065L8.33646 6.01433L8.33646 6.01801L8.33646 6.02169L8.33646 6.02537L8.33646 6.02905L8.33646 6.03273L8.33646 6.03641L8.33646 6.04009L8.33646 6.04376L8.33646 6.04744L8.33646 6.05112L8.33646 6.0548L8.33646 6.05848L8.33646 6.06216L8.33646 6.06584L8.33646 6.06952L8.33646 6.07319L8.33646 6.07687L8.33646 6.08055L8.33646 6.08423L8.33646 6.08791L8.33646 6.09158L8.33646 6.09526L8.33646 6.09894L8.33646 6.10262L8.33646 6.10629L8.33646 6.10997L8.33646 6.11365L8.33646 6.11733L8.33646 6.121L8.33646 6.12468L8.33646 6.12835L8.33646 6.13203L8.33646 6.13571L8.33646 6.13938L8.33646 6.14306L8.33646 6.14674L8.33646 6.15041L8.33646 6.15409L8.33646 6.15776L8.33646 6.16144L8.33646 6.16511L8.33646 6.16879L8.33646 6.17246L8.33646 6.17614L8.33646 6.17981L8.33646 6.18349L8.33646 6.18716L8.33646 6.19084L8.33646 6.19451L8.33646 6.19819L8.33646 6.20186L8.33646 6.20554L8.33646 6.20921L8.33646 6.21288L8.33646 6.21656L8.33646 6.22023L8.33646 6.22391L8.33646 6.22758L8.33646 6.23125L8.33646 6.23493L8.33646 6.2386L8.33646 6.24227L8.33646 6.24595L8.33646 6.24962L8.33646 6.25329L8.33646 6.25697L8.33646 6.26064L8.33646 6.26431L8.33646 6.26798L8.33646 6.27166L8.33646 6.27533L8.33646 6.279L8.33646 6.28267L8.33646 6.28635L8.33646 6.29002L8.33646 6.29369L8.33646 6.29736L8.33646 6.30103L8.33646 6.30471L8.33646 6.30838L8.33646 6.31205L8.33646 6.31572L8.33646 6.31939L8.33646 6.32307L8.33646 6.32674L8.33646 6.33041L8.33646 6.33408L8.33646 6.33775L8.33646 6.34142L8.33646 6.34509L8.33646 6.34876L8.33646 6.35244L8.33646 6.35611L8.33646 6.35978L8.33646 6.36345L8.33646 6.36712L8.33646 6.37079L8.33646 6.37446L8.33646 6.37813L8.33646 6.3818L8.33646 6.38547L8.33646 6.38914L8.33646 6.39281L8.33646 6.39648L8.33646 6.40015L8.33646 6.40382L8.33646 6.40749L8.33646 6.41116L8.33646 6.41483L8.33646 6.4185L8.33646 6.42217L8.33646 6.42584L8.33646 6.42951L8.33646 6.43318L8.33646 6.43685L8.33646 6.44052L8.33646 6.44419L8.33646 6.44786L8.33646 6.45153L8.33646 6.4552L8.33646 6.45887L8.33646 6.46254L8.33646 6.46621L8.33646 6.46988L8.33646 6.47355L8.33646 6.47722L8.33646 6.48089L8.33646 6.48456L8.33646 6.48823L8.33646 6.49189L8.33646 6.49556L8.33646 6.49923L8.33646 6.5029L8.33646 6.50657L8.33646 6.51024L8.33646 6.51391L8.33646 6.51758L8.33646 6.52125L8.33646 6.52492L8.33646 6.52859L8.33646 6.53225L8.33646 6.53592L8.33646 6.53959L8.33646 6.54326L8.33646 6.54693L8.33646 6.5506L8.33646 6.55427L8.33646 6.55794L8.33646 6.5616L8.33646 6.56527L8.33646 6.56894L8.33646 6.57261L8.33646 6.57628L8.33646 6.57995L8.33646 6.58362L8.33646 6.58729L8.33646 6.59095L8.33646 6.59462L8.33646 6.59829L8.33646 6.60196L8.33646 6.60563L8.33646 6.6093L8.33646 6.61297L8.33646 6.61664L8.33646 6.6203L8.33646 6.62397L8.33646 6.62764L8.33646 6.63131L8.33646 6.63498L8.33646 6.63865L8.33646 6.64232L8.33646 6.64598L8.33646 6.64965L8.33646 6.65332L8.33646 6.65699L8.33646 6.66066L8.33646 6.66433L8.33646 6.668L8.33646 6.67167L8.33646 6.67533L8.33646 6.679L8.33646 6.68267L8.33646 6.68634L8.33646 6.69001L8.33646 6.69368L8.33646 6.69735L8.33646 6.70102L8.33646 6.70468L8.33646 6.70835L8.33646 6.71202L8.33646 6.71569L8.33646 6.71936L8.33646 6.72303L8.33646 6.7267L8.33646 6.73037L8.33646 6.73404L8.33646 6.7377L8.33646 6.74137L8.33646 6.74504L8.33646 6.74871L8.33646 6.75238L8.33646 6.75605L8.33646 6.75972L8.33646 6.76339L8.33646 6.76706L8.33646 6.77073L8.33646 6.7744L8.33646 6.77807L8.33646 6.78174L8.33646 6.78541L8.33646 6.78907L8.33646 6.79274L8.33646 6.79641L8.33646 6.80008L8.33646 6.80375L8.33646 6.80742L8.33646 6.81109L8.33646 6.81476L8.33646 6.81843L8.33646 6.8221L8.33646 6.82577L8.33646 6.82944L8.33646 6.83311L8.33646 6.83678L8.33646 6.84045L8.33646 6.84412L8.33646 6.84779L8.33646 6.85146L8.33646 6.85513L8.33646 6.8588L8.33646 6.86247L8.33646 6.86614L8.33646 6.86981L8.33646 6.87349L8.33646 6.87716L8.33646 6.88083L8.33646 6.8845L8.33646 6.88817L8.33646 6.89184L8.33646 6.89551L8.33646 6.89918L8.33646 6.90285L8.33646 6.90652L8.33646 6.91019L8.33646 6.91387L8.33646 6.91754L8.33646 6.92121L8.33646 6.92488L8.33646 6.92855L8.33646 6.93222L8.33646 6.93589L8.33646 6.93957L8.33646 6.94324L8.33646 6.94691L8.33646 6.95058L8.33646 6.95425L8.33646 6.95793L8.33646 6.9616L8.33646 6.96527L8.33646 6.96894L8.33646 6.97262L8.33646 6.97629L8.33646 6.97996L8.33646 6.98363L8.33646 6.98731L8.33646 6.99098L8.33646 6.99465L8.33646 6.99833L8.33646 7.002L8.33646 7.00567L8.33646 7.00935L8.33646 7.01302L8.33646 7.01669L8.33646 7.02037L8.33646 7.02404L8.33646 7.02771L8.33646 7.03139L8.33646 7.03506L8.33646 7.03873L8.33646 7.04241L8.33646 7.04608L8.33646 7.04976L8.33646 7.05343L8.33646 7.05711L8.33646 7.06078L8.33646 7.06446L8.33646 7.06813L8.33646 7.07181L8.33646 7.07548L8.33646 7.07916L8.33646 7.08283L8.33646 7.08651L8.33646 7.09018L8.33646 7.09386L8.33646 7.09753L8.33646 7.10121L8.33646 7.10489L8.33646 7.10856L8.33646 7.11224L8.33646 7.11591L8.33646 7.11959L8.33646 7.12327L8.33646 7.12694L8.33646 7.13062L8.33646 7.1343L8.33646 7.13797L8.33646 7.14165L8.33646 7.14533L8.33646 7.14901L8.33646 7.15268L8.33646 7.15636L8.33646 7.16004L8.33646 7.16372L8.33646 7.16739L8.33646 7.17107L8.33646 7.17475L8.33646 7.17843L8.33646 7.18211L8.33646 7.18579L8.33646 7.18946L8.33646 7.19314L8.33646 7.19682L8.33646 7.2005L8.33646 7.20418L8.33646 7.20786L8.33646 7.21154L8.33646 7.21522L8.33646 7.2189L8.33646 7.22258L8.33646 7.22626L8.33646 7.22994L8.33646 7.23362L8.33646 7.2373L8.33646 7.24098L8.33646 7.24466L8.33646 7.24834L8.33646 7.25202L8.33646 7.2557L8.33646 7.25939L8.33646 7.26307L8.33646 7.26675L8.33646 7.27043L8.33646 7.27411L8.33646 7.27779L8.33646 7.28148L8.33646 7.28516L8.33646 7.28884L8.33646 7.29252L8.33646 7.29621L8.33646 7.29989L8.33646 7.30357L8.33646 7.30726L8.33646 7.31094L8.33646 7.31462L8.33646 7.31831L8.33646 7.32199L8.33646 7.32568L8.33646 7.32936L8.33646 7.33305L8.33646 7.33673L8.33646 7.34041L8.33646 7.3441L8.33646 7.34778L8.33646 7.35147L8.33646 7.35516L8.33646 7.35884L8.33646 7.36253L8.33646 7.36621L8.33646 7.3699L8.33646 7.37359L8.33646 7.37727L8.33646 7.38096L8.33646 7.38465L8.33646 7.38833L8.33646 7.39202L8.33646 7.39571L8.33646 7.39939L8.33646 7.40308L8.33646 7.40677L8.33646 7.41046L8.33646 7.41415L8.33646 7.41784L8.33646 7.42152L8.33646 7.42521L8.33646 7.4289L8.33646 7.43259L8.33646 7.43628L8.33646 7.43997L8.33646 7.44366L8.33646 7.44735L8.33646 7.45104L8.33646 7.45473L8.33646 7.45842L8.33646 7.46211L8.33646 7.4658L8.33646 7.46949L8.33646 7.47319L8.33646 7.47688L8.33646 7.48057L8.33646 7.48426L8.33646 7.48795L8.33646 7.49165L8.33646 7.49534L8.33646 7.49903L8.33646 7.50272L8.33646 7.50642L8.33646 7.51011L8.33646 7.5138L8.33646 7.5175L8.33646 7.52119L8.33646 7.52489L8.33646 7.52858L8.33646 7.53227L8.33646 7.53597L8.33646 7.53966L8.33646 7.54336L8.33646 7.54705L8.33646 7.55075L8.33646 7.55445L8.33646 7.55814L8.33646 7.56184L8.33646 7.56554L8.33646 7.56682L8.33646 7.56811L8.33646 7.5694L8.33646 7.57069L8.33646 7.57198L8.33646 7.57326L8.33646 7.57455L8.33646 7.57584L8.33646 7.57713L8.33646 7.57842L8.33646 7.57971L8.33646 7.58099L8.33646 7.58228L8.33646 7.58357L8.33646 7.58486L8.33646 7.58615L8.33646 7.58744L8.33646 7.58872L8.33646 7.59001L8.33646 7.5913L8.33646 7.59259L8.33646 7.59388L8.33646 7.59516L8.33646 7.59645L8.33646 7.59774L8.33646 7.59903L8.33646 7.60032L8.33646 7.60161L8.33646 7.60289L8.33646 7.60418L8.33646 7.60547L8.33646 7.60676L8.33646 7.60805L8.33646 7.60934L8.33646 7.61062L8.33646 7.61191L8.33646 7.6132L8.33646 7.61449L8.33646 7.61578L8.33646 7.61706L8.33646 7.61835L8.33646 7.61964L8.33646 7.62093L8.33646 7.62222L8.33646 7.62351L8.33646 7.62479L8.33646 7.62608L8.33646 7.62737L8.33646 7.62866L8.33646 7.62995L8.33646 7.63124L8.33646 7.63252L8.33646 7.63381L8.33646 7.6351L8.33646 7.63639L8.33646 7.63768L8.33646 7.63896L8.33646 7.64025L8.33646 7.64154L8.33646 7.64283L8.33646 7.64412L8.33646 7.64541L8.33646 7.64669L8.33646 7.64798L8.33646 7.64927L8.33646 7.65056L8.33646 7.65185L8.33646 7.65314L8.33646 7.65442L8.33646 7.65571L8.33646 7.657L8.33646 7.65829L8.33646 7.65958L8.33646 7.66086L8.33646 7.66215L8.33646 7.66344L8.33646 7.66473L8.33646 7.66602L8.33646 7.66731L8.33646 7.66859L8.33646 7.66988L8.33646 7.67117L8.33646 7.67246L8.33646 7.67375L8.33646 7.67503L8.33646 7.67632L8.33646 7.67761L8.33646 7.6789L8.33646 7.68019L8.33646 7.68148L8.33646 7.68276L8.33646 7.68405L8.33646 7.68534L8.33646 7.68663L8.33646 7.68792L8.33646 7.68921L8.33646 7.69049L8.33646 7.69178L8.33646 7.69307L8.33646 7.69436L8.33646 7.69565L8.33646 7.69693L8.33646 7.69822L8.33646 7.69951L8.33646 7.7008L8.33646 7.70209L8.33646 7.70338L8.33646 7.70466L8.33646 7.70595L8.33646 7.70724L8.33646 7.70853L8.33646 7.70982L8.33646 7.71111L8.33646 7.71239L8.33646 7.71368L8.33646 7.71497L8.33646 7.71626L8.33646 7.71755L8.33646 7.71883L8.33646 7.72012L8.33646 7.72141L8.33646 7.7227L8.33646 7.72399L8.33646 7.72528L8.33646 7.72656L8.33646 7.72785L8.33646 7.72914L8.33646 7.73043L8.33646 7.73172L8.33646 7.73301L8.33646 7.73429L8.33646 7.73558L8.33646 7.73687L8.33646 7.73816L8.33646 7.73945L8.33646 7.74073L8.33646 7.74202L8.33646 7.74331L8.33646 7.7446L8.33646 7.74589L8.33646 7.74718L8.33646 7.74846L8.33646 7.74975L8.33646 7.75104L8.33646 7.75233L8.33646 7.75362L8.33646 7.7549L8.33646 7.75619L8.33646 7.75748L8.33646 7.75877L8.33646 7.76006L8.33646 7.76135L8.33646 7.76263L8.33646 7.76392L8.33646 7.76521L8.33646 7.7665L8.33646 7.76779L8.33646 7.76908L8.33646 7.77036L8.33646 7.77165L8.33646 7.77294L8.33646 7.77423L8.33646 7.77552L8.33646 7.7768L8.33646 7.77809L8.33646 7.77938L8.33646 7.78067L8.33646 7.78196L8.33646 7.78325L8.33646 7.78453L8.33646 7.78582L8.33646 7.78711L8.33646 7.7884L8.33646 7.78969L8.33646 7.79098L8.33646 7.79226L8.33646 7.79355L8.33646 7.79484L8.33646 7.79613L8.33646 7.79742L8.33646 7.7987L8.33646 7.79999L8.33646 7.80128L8.33646 7.80257L8.33646 7.80386L8.33646 7.80515L8.33646 7.80643L8.33646 7.80772L8.33646 7.80901L8.33646 7.8103L8.33646 7.81159L8.33646 7.81288L8.33646 7.81416L8.33646 7.81545L8.33646 7.81674L8.33646 7.81803L8.33646 7.81932L8.33646 7.8206L8.33646 7.82189L8.33646 7.82318L8.33646 7.82447L8.33646 7.82576L8.33646 7.82705L8.33646 7.82833L8.33646 7.82962L8.33646 7.83091L8.33646 7.8322L8.33646 7.83349L8.33646 7.83478L8.33646 7.83606L8.33646 7.83735L8.33646 7.83864L8.33646 7.83993L8.33646 7.84122L8.33646 7.8425L8.33646 7.84379L8.33646 7.84508L8.33646 7.84637L8.33646 7.84766L8.33646 7.84895L8.33646 7.85023L8.33646 7.85152L8.33646 7.85281L8.33646 7.8541L8.33646 7.85539L8.33646 7.85667L8.33646 7.85796L8.33646 7.85925L8.33646 7.86054L8.33646 7.86183L8.33646 7.86312L8.33646 7.8644L8.33646 7.86569L8.33646 7.86698L8.33646 7.86827L8.33646 7.86956L8.33646 7.87085L8.33646 7.87213L8.33646 7.87342L8.33646 7.87471L8.33646 7.876L8.33646 7.87729L8.33646 7.87857L8.33646 7.87986L8.33646 7.88115L8.33646 7.88244L8.33646 7.88373L8.33646 7.88502L8.33646 7.8863L8.33646 7.88759L8.33646 7.88888L8.33646 7.89017L8.33646 7.89146L8.33646 7.89275L8.33646 7.89403L8.33646 7.89532L8.33646 7.89661L8.33646 7.8979L8.33646 7.89919L8.33646 7.90047L8.33646 7.90176L8.33646 7.90305L8.33646 7.90434L8.33646 7.90563L8.33646 7.90692L8.33646 7.9082L8.33646 7.90949L8.33646 7.91078L8.33646 7.91207L8.33646 7.91336L8.33646 7.91465L8.33646 7.91593L8.33646 7.91722L8.33646 7.91851L8.33646 7.9198L8.33646 7.92109L8.33646 7.92237L8.33646 7.92366L8.33646 7.92495L8.33646 7.92624L8.33646 7.92753L8.33646 7.92882L8.33646 7.9301L8.33646 7.93139L8.33646 7.93268L8.33646 7.93397L8.33646 7.93526L8.33646 7.93655L8.33646 7.93783L8.33646 7.93912L8.33646 7.94041L8.33646 7.9417L8.33646 7.94299L8.33646 7.94427L8.33646 7.94556L8.33646 7.94685L8.33646 7.94814L8.33646 7.94943L8.33646 7.95072L8.33646 7.952L8.33646 7.95329L8.33646 7.95458L8.33646 7.95587L8.33646 7.95716L8.33646 7.95845L8.33646 7.95973L8.33646 7.96102L8.33646 7.96231L8.33646 7.9636L8.33646 7.96489L8.33646 7.96617L8.33646 7.96746L8.33646 7.96875L8.33646 7.97004L8.33646 7.97133L8.33646 7.97262L8.33646 7.9739L8.33646 7.97519L8.33646 7.97648L8.33646 7.97777L8.33646 7.97906L8.33646 7.98034L8.33646 7.98163L8.33646 7.98292L8.33646 7.98421L8.33646 7.9855L8.33646 7.98679L8.33646 7.98807L8.33646 7.98936L8.33646 7.99065L8.33646 7.99194L8.33646 7.99323L8.33646 7.99452L8.33646 7.9958L8.33646 7.99709L8.33646 7.99838L8.33646 7.99967L8.33646 8.00096L8.33646 8.00224L8.33646 8.00353L8.33646 8.00482L8.33646 8.00611L8.33646 8.0074L8.33646 8.00869L8.33646 8.00997L8.33646 8.01126L8.33646 8.01255L8.33646 8.01384L8.33646 8.01513L8.33646 8.01642L8.33646 8.0177L8.33646 8.01899L8.33646 8.02028L8.33646 8.02157L8.33646 8.02286L8.33646 8.02414L8.33646 8.02543L8.33646 8.02672L8.33646 8.02801L8.33646 8.0293L8.33646 8.03059L8.33646 8.03187L8.33646 8.03316L8.33646 8.03445L8.33646 8.03574L8.33646 8.03703L8.33646 8.03832L8.33646 8.0396L8.33646 8.04089L8.33646 8.04218L8.33646 8.04347L8.33646 8.04476L8.33646 8.04604L8.33646 8.04733L8.33646 8.04862L8.33646 8.04991L8.33646 8.0512L8.33646 8.05249L8.33646 8.05377L8.33646 8.05506L8.33646 8.05635L8.33646 8.05764L8.33646 8.05893L8.33646 8.06021L8.33646 8.0615L8.33646 8.06279L8.33646 8.06408L8.33646 8.06537L8.33646 8.06666L8.33646 8.06794L8.33646 8.06923L8.33646 8.07052L8.33646 8.07181L8.33646 8.0731L8.33646 8.07439L8.33646 8.07567L8.33646 8.07696L8.33646 8.07825L8.33646 8.07954L8.33646 8.08083L8.33646 8.08211L8.33646 8.0834L8.33646 8.08469L8.33646 8.08598L8.33646 8.08727L8.33646 8.08856L8.33646 8.08984L8.33646 8.09113L8.33646 8.09242L8.33646 8.09371L8.33646 8.095L8.33646 8.09629L8.33646 8.09757L8.33646 8.09886L8.33646 8.10015L8.33646 8.10144L8.33646 8.10273L8.33646 8.10401L8.33646 8.1053L8.33646 8.10659L8.33646 8.10788L8.33646 8.10917L8.33646 8.11046L8.33646 8.11174L8.33646 8.11303L8.33646 8.11432L8.33646 8.11561L8.33646 8.1169L8.33646 8.11819L8.33646 8.11947L8.33646 8.12076L8.33646 8.12205L8.33646 8.12334L8.33646 8.12463L8.33646 8.12591L8.33646 8.1272L8.33646 8.12849L8.33646 8.12978L8.33646 8.13107L8.33646 8.13236L8.33646 8.13364L8.33646 8.13493L8.33646 8.13622L8.33646 8.13751L8.33646 8.1388L8.33646 8.14008L8.33646 8.14137L8.33646 8.14266L8.33646 8.14395L8.33646 8.14524L8.33646 8.14653L8.33646 8.14781L8.33646 8.1491L8.33646 8.15039L8.33646 8.15168L8.33646 8.15297L8.33646 8.15426L8.33646 8.15554L8.33646 8.15683L8.33646 8.15812L8.33646 8.15941L8.33646 8.1607L8.33646 8.16198L8.33646 8.16327L8.33646 8.16456L8.33646 8.16585L8.33646 8.16714L8.33646 8.16843L8.33646 8.16971L8.33646 8.171L8.33646 8.17229L8.33646 8.17358L8.33646 8.17487L8.33646 8.17616L8.33646 8.17744L8.33646 8.17873L8.33646 8.18002L8.33646 8.18131L8.33646 8.1826L8.33646 8.18388L8.33646 8.18517L8.33646 8.18646L8.33646 8.18775L8.33646 8.18904L8.33646 8.19033L8.33646 8.19161L8.33646 8.1929L8.33646 8.19419L8.33646 8.19548L8.33646 8.19677L8.33646 8.19806L8.33646 8.19934L8.33646 8.20063L8.33646 8.20192L8.33646 8.20321L8.33646 8.2045L8.33646 8.20578L8.33646 8.20707L8.33646 8.20836L8.33646 8.20965L8.33646 8.21094L8.33646 8.21223L8.33646 8.21351L8.33646 8.2148L8.33646 8.21609L8.33646 8.21738L8.33646 8.21867L8.33646 8.21995L8.33646 8.22124L8.33646 8.22253L8.33646 8.22382L8.33646 8.22511L8.33646 8.88468L8.33646 9.54425L8.33646 9.54918L8.33646 9.55411L8.33646 9.55904L8.33646 9.56397L8.33646 9.5689L8.33646 9.57383L8.33646 9.57876L8.33646 9.58369L8.33646 9.58862L8.33646 9.59355L8.33646 9.59848L8.33646 9.60341L8.33646 9.60835L8.33646 9.61328L8.33646 9.61821L8.33646 9.62314L8.33646 9.62807L8.33646 9.63301L8.33646 9.63794L8.33646 9.64287L8.33646 9.64781L8.33646 9.65274L8.33646 9.65767L8.33646 9.66261L8.33646 9.66754L8.33646 9.67247L8.33646 9.67741L8.33646 9.68234L8.33646 9.68728L8.33646 9.69221L8.33646 9.69715L8.33646 9.70208L8.33646 9.70702L8.33646 9.71196L8.33646 9.71689L8.33646 9.72183L8.33646 9.72676L8.33646 9.7317L8.33646 9.73664L8.33646 9.74157L8.33646 9.74651L8.33646 9.75145L8.33646 9.75638L8.33646 9.76132L8.33646 9.76626L8.33646 9.7712L8.33646 9.77614L8.33646 9.78107L8.33646 9.78601L8.33646 9.79095L8.33646 9.79589L8.33646 9.80083L8.33646 9.80577L8.33646 9.81071L8.33646 9.81565L8.33646 9.82059L8.33646 9.82553L8.33646 9.83047L8.33646 9.83541L8.33646 9.84035L8.33646 9.84529L8.33646 9.85023L8.33646 9.85517L8.33646 9.86011L8.33646 9.86505L8.33646 9.86999L8.33646 9.87494L8.33646 9.87988L8.33646 9.88482L8.33646 9.88976L8.33646 9.8947L8.33646 9.89965L8.33646 9.90459L8.33646 9.90953L8.33646 9.91447L8.33646 9.91942L8.33646 9.92436L8.33646 9.9293L8.33646 9.93425L8.33646 9.93919L8.33646 9.94413L8.33646 9.94908L8.33646 9.95402L8.33646 9.95897L8.33646 9.96391L8.33646 9.96885L8.33646 9.9738L8.33646 9.97874L8.33646 9.98369L8.33646 9.98863L8.33646 9.99358L8.33646 9.99852L8.33646 10.0035L8.33646 10.0084L8.33646 10.0134L8.33646 10.0183L8.33646 10.0233L8.33646 10.0282L8.33646 10.0331L8.33646 10.0381L8.33646 10.043L8.33646 10.048L8.33646 10.0529L8.33646 10.0579L8.33646 10.0628L8.33646 10.0678L8.33646 10.0727L8.33646 10.0777L8.33646 10.0826L8.33646 10.0876L8.33646 10.0925L8.33646 10.0975L8.33646 10.1024L8.33646 10.1074L8.33646 10.1123L8.33646 10.1173L8.33646 10.1222L8.33646 10.1271L8.33646 10.1321L8.33646 10.137L8.33646 10.142L8.33646 10.1469L8.33646 10.1519L8.33646 10.1568L8.33646 10.1618L8.33646 10.1667L8.33646 10.1717L8.33646 10.1766L8.33646 10.1816L8.33646 10.1865L8.33646 10.1915L8.33646 10.1964L8.33646 10.2014L8.33646 10.2063L8.33646 10.2113L8.33646 10.2162L8.33646 10.2212L8.33646 10.2261L8.33646 10.2311L8.33646 10.236L8.33646 10.241L8.33646 10.246L8.33646 10.2509L8.33646 10.2559L8.33646 10.2608L8.33646 10.2658L8.33646 10.2707L8.33646 10.2757L8.33646 10.2806L8.33646 10.2856L8.33646 10.2905L8.33646 10.2955L8.33646 10.3004L8.33646 10.3054L8.33646 10.3103L8.33646 10.3153L8.33646 10.3202L8.33646 10.3252L8.33646 10.3301L8.33646 10.3351L8.33646 10.34L8.33646 10.345L8.33646 10.3499L8.33646 10.3549L8.33646 10.3599L8.33646 10.3648L8.33646 10.3698L8.33646 10.3747L8.33646 10.3797L8.33646 10.3846L8.33646 10.3896L8.33646 10.3945L8.33646 10.3995L8.33646 10.4044L8.33646 10.4094L8.33646 10.4143L8.33646 10.4193L8.33646 10.4243L8.33646 10.4292L8.33646 10.4342L8.33646 10.4391L8.33646 10.4441L8.33646 10.449L8.33646 10.454L8.33646 10.4589L8.33646 10.4639L8.33646 10.4688L8.33646 10.4738L8.33646 10.4788L8.33646 10.4837L8.33646 10.4887L8.33646 10.4936L8.33646 10.4986L8.33646 10.5035L8.33646 10.5085L8.33646 10.5134L8.33646 10.5184L8.33646 10.5234L8.33646 10.5283L8.33646 10.5333L8.33646 10.5382L8.33646 10.5432L8.33646 10.5481L8.33646 10.5531L8.33646 10.558L8.33646 10.563L8.33646 10.568L8.33646 10.5729L8.33646 10.5779L8.33646 10.5828L8.33646 10.5878L8.33646 10.5927L8.33646 10.5977L8.33646 10.6026L8.33646 10.6076L8.33646 10.6126L8.33646 10.6175L8.33646 10.6225L8.33646 10.6274L8.33646 10.6324L8.33646 10.6373L8.33646 10.6423L8.33646 10.6473L8.33646 10.6522L8.33646 10.6572L8.33646 10.6621L8.33646 10.6671L8.33646 10.672L8.33646 10.677L8.33646 10.6819L8.33646 10.6869L8.33646 10.6919L8.33646 10.6968L8.33646 10.7018L8.33646 10.7067L8.33646 10.7117L8.33646 10.7166L8.33646 10.7216L8.33646 10.7266L8.33646 10.7315L8.33646 10.7365L8.33646 10.7414L8.33646 10.7464L8.33646 10.7513L8.33646 10.7563L8.33646 10.7613L8.33646 10.7662L8.33646 10.7712L8.33646 10.7761L8.33646 10.7811L8.33646 10.786L8.33646 10.791L8.33646 10.796L8.33646 10.8009L8.33646 10.8059L8.33646 10.8108L8.33646 10.8158L8.33646 10.8207L8.33646 10.8257L8.33646 10.8306L8.33646 10.8356L8.33646 10.8406L8.33646 10.8455L8.33646 10.8505L8.33646 10.8554L8.33646 10.8604L8.33646 10.8653L8.33646 10.8703L8.33646 10.8753L8.33646 10.8802L8.33646 10.8852L8.33646 10.8901L8.33646 10.8951L8.33646 10.9L8.33646 10.905L8.33646 10.91L8.33646 10.9149L8.33646 10.9199L8.33646 10.9248L8.33646 10.9298L8.33646 10.9347L8.33646 10.9397L8.33646 10.9447L8.33646 10.9496L8.33646 10.9546L8.33646 10.9595L8.33646 10.9645L8.33646 10.9694L8.33646 10.9744L8.33646 10.9794L8.33646 10.9843L8.33646 10.9893L8.33646 10.9942L8.33646 10.9992L8.33646 11.0041L8.33646 11.0091L8.33646 11.014L8.33646 11.019L8.33646 11.024L8.33646 11.0289L8.33646 11.0339L8.33646 11.0388L8.33646 11.0438L8.33646 11.0487L8.33646 11.0537L8.33646 11.0586L8.33646 11.0636L8.33646 11.0686L8.33646 11.0735L8.33646 11.0785L8.33646 11.0834L8.33646 11.0884L8.33646 11.0933L8.33646 11.0983L8.33646 11.1032L8.33646 11.1082L8.33646 11.1132L8.33646 11.1181L8.33646 11.1231L8.33646 11.128L8.33646 11.133L8.33646 11.1379L8.33646 11.1429L8.33646 11.1478L8.33646 11.1528L8.33646 11.1578L8.33646 11.1627L8.33646 11.1677L8.33646 11.1726L8.33646 11.1776L8.33646 11.1825L8.33646 11.1875L8.33646 11.1924L8.33646 11.1974L8.33646 11.2023L8.33646 11.2073L8.33646 11.2123L8.33646 11.2172L8.33646 11.2222L8.33646 11.2271L8.33646 11.2321L8.33646 11.237L8.33646 11.242L8.33646 11.2469L8.33646 11.2519L8.33646 11.2568L8.33646 11.2618L8.33646 11.2667L8.33646 11.2717L8.33646 11.2767L8.33646 11.2816L8.33646 11.2866L8.33646 11.2915L8.33646 11.2965L8.33646 11.3014L8.33646 11.3064L8.33646 11.3113L8.33646 11.3163L8.33646 11.3212L8.33646 11.3262L8.33646 11.3311L8.33646 11.3361L8.33646 11.341L8.33646 11.346L8.33646 11.3509L8.33646 11.3559L8.33646 11.3608L8.33646 11.3658L8.33646 11.3707L8.33646 11.3757L8.33646 11.3806L8.33646 11.3856L8.33646 11.3905L8.33646 11.3955L8.33646 11.4005L8.33646 11.4054L8.33646 11.4104L8.33646 11.4153L8.33646 11.4203L8.33646 11.4252L8.33646 11.4302L8.33646 11.4351L8.33646 11.4401L8.33646 11.445L8.33646 11.45L8.33646 11.4549L8.33646 11.4599L8.33646 11.4648L8.33646 11.4698L8.33646 11.4747L8.33646 11.4796L8.33646 11.4846L8.33646 11.4895L8.33646 11.4945L8.33646 11.4994L8.33646 11.5044L8.33646 11.5093L8.33646 11.5143L8.33646 11.5192L8.33646 11.5242L8.33646 11.5291L8.33646 11.5341L8.33646 11.539L8.33646 11.544L8.33646 11.5489L8.33646 11.5539L8.33646 11.5588L8.33646 11.5638L8.33646 11.5687L8.33646 11.5737L8.33646 11.5786L8.33646 11.5836L8.33646 11.5885L8.33646 11.5934L8.33646 11.5984L8.33646 11.6033L8.33646 11.6083L8.33646 11.6132L8.33646 11.6182L8.33646 11.6231L8.33646 11.6281L8.33646 11.633L8.33646 11.638L8.33646 11.6429L8.33646 11.6478L8.33646 11.6528L8.33646 11.6577L8.33646 11.6627L8.33646 11.6676L8.33646 11.6726L8.33646 11.6775L8.33646 11.6825L8.33646 11.6874L8.33646 11.6923L8.33646 11.6973L8.33646 11.7022L8.33646 11.7072L8.33646 11.7121L8.33646 11.7171L8.33646 11.722L8.33646 11.7269L8.33646 11.7319L8.33646 11.7368L8.33646 11.7418L8.33646 11.7467L8.33646 11.7517L8.33646 11.7566L8.33646 11.7615L8.33646 11.7665L8.33646 11.7714L8.33646 11.7764L8.33646 11.7813L8.33646 11.7862L8.33646 11.7912L8.33646 11.7961L8.33646 11.8011L8.33646 11.806L8.33646 11.8109L8.33646 11.8159L8.33646 11.8208L8.33646 11.8258L8.33646 11.8307L8.33646 11.8356L8.33646 11.8406L8.33646 11.8455L8.33646 11.8504L8.33646 11.8554L8.33646 11.8603L8.33646 11.8653L8.33646 11.8702L8.33646 11.8751L8.33646 11.8801L8.33646 11.885L8.33646 11.8899L8.33646 11.8949L8.33646 11.8998L8.33646 11.9048L8.33646 11.9097L8.33646 11.9146L8.33646 11.9196L8.33646 11.9245L8.33646 11.9294L8.33646 11.9344L8.33646 11.9393L8.33646 11.9442L8.33646 11.9492L8.33646 11.9541L8.33646 11.959L8.33646 11.964L8.33646 11.9689L8.33646 11.9738L8.33646 11.9788L8.33646 11.9837L8.33646 11.9886L8.33646 11.9936L8.33646 11.9985L8.33646 12.0034L8.33646 12.0084L8.33646 12.0133L8.33646 12.0182L8.33646 12.0232L8.33646 12.0281L8.33646 12.033L8.33646 12.038L8.33646 12.0429L8.33646 12.0478L8.33646 12.0527L8.33646 12.0577L8.33646 12.0626L8.33646 12.0675L8.33646 12.0725L8.33646 12.0774L8.37676 5.339Z" fill="#3D465B" stroke="#3D465B" stroke-width="0.25"/>
<path d="M12.2963 8.46957C12.5257 8.49547 12.6691 8.63362 12.6882 8.83221C12.7169 9.03943 12.6022 9.20348 12.3823 9.27255C12.2772 9.30709 12.172 9.30709 12.0764 9.30709H12.0764L9.54328 9.30709H8.8837H8.22413H7.56456H5.68143H5.68143C5.5954 9.30709 5.48069 9.30709 5.37554 9.27255C5.1748 9.21212 5.0601 9.04806 5.07921 8.84948C5.09833 8.65089 5.25128 8.50411 5.47113 8.46957L12.2963 8.46957ZM12.2963 8.46957L12.3149 8.34597C12.2482 8.33593 12.1832 8.33593 12.1453 8.33594L12.1433 8.33594H12.1147H12.102H12.0894H12.0768H12.0642H12.0516H12.039H12.0264H12.0138H12.0012H11.9886H11.976H11.9634H11.9508H11.9382H11.9256H11.913H11.9004H11.8878H11.8752H11.8626H11.85H11.8374H11.8248H11.8122H11.7996H11.787H11.7744H11.7618H11.7492H11.7366H11.724H11.7114H11.6988H11.6862H11.6736H11.661H11.6484H11.6358H11.6232H11.6106H11.598H11.5854H11.5728H11.5602H11.5476H11.5349H11.5223H11.5097H11.4971H11.4845H11.4719H11.4593H11.4467H11.4341H11.4215H11.4089H11.3963H11.3837H11.3711H11.3585H11.3459H11.3333H11.3207H11.3081H11.2955H11.2829H11.2703H11.2577H11.2451H11.2325H11.2199H11.2073H11.1947H11.1821H11.1695H11.1569H11.1443H11.1317H11.1191H11.1065H11.0939H11.0813H11.0687H11.0561H11.0435H11.0309H11.0183H11.0057H10.9931H10.9805H10.9678H10.9552H10.9426H10.93H10.9174H10.9048H10.8922H10.8796H10.867H10.8544H10.8418H10.8292H10.8166H10.804H10.7914H10.7788H10.7662H10.7536H10.741H10.7284H10.7158H10.7032H10.6906L10.678 8.33594H10.6654H10.6528H10.6402H10.6276H10.615H10.6024H10.5898H10.5772H10.5646H10.552H10.5394H10.5268H10.5142H10.5016H10.489H10.4764H10.4638H10.4512H10.4386H10.426H10.4134H10.4007H10.3881H10.3755H10.3629H10.3503H10.3377H10.3251H10.3125H10.2999H10.2873H10.2747H10.2621H10.2495H10.2369H10.2243H10.2117H10.1991H10.1865H10.1739H10.1613H10.1487H10.1361H10.1235H10.1109H10.0983H10.0857H10.0731H10.0605H10.0479H10.0353H10.0227H10.0101H9.99748H9.98488H9.97227H9.95967H9.94707H9.93447H9.92186H9.90926H9.89666H9.88406H9.87146H9.85885H9.84625H9.83365H9.82105H9.80844H9.79584H9.78324H9.77064H9.75804H9.74543H9.73283H9.72023H9.70763H9.69502H9.68242H9.66982H9.65722H9.64462H9.63201H9.61941H9.60681H9.59421H9.5816H9.569H9.5564H9.5438H9.5312H9.51859H9.50599H9.49339H9.48079H9.46818H9.45558H9.44298H9.43038H9.41778H9.40517H9.39257H9.37997H9.36737H9.35476H9.34216H9.32956H9.31696H9.30436H9.29175H9.27915H9.26655H9.25395H9.24134H9.22874H9.21614H9.20354H9.19094H9.17833H9.16573H9.15313H9.14053H9.12792H9.11532H9.10272H9.09012H9.07752H9.06491H9.05231H9.03971H9.02711H9.01451H9.0019H8.9893H8.9767H8.9641H8.95149H8.93889H8.92629H8.91369H8.90109H8.88848H8.87588H8.86328H8.85068H8.83807H8.82547H8.81287H8.80027H8.78767H8.77506H8.76246H8.74986H8.73726H8.72465H8.71205H8.69945H8.68685H8.67425H8.66164H8.64904H8.63644H8.62384H8.61123H8.59863H8.58603H8.57343H8.56083H8.54822H8.53562H8.52302H8.51042H8.49781H8.48521H8.47261H8.46001H8.44741H8.4348H8.4222H8.4096H8.397H8.38439H8.37179H8.35919H8.34659H8.33399H8.32138H8.30878H8.29618H8.28358H8.27097H8.25837H8.24577H8.23317H8.22057H8.20796H8.19536H8.18276H8.17016H8.15755H8.14495H8.13235H8.11975H8.10715H8.09454H8.08194H8.06934H8.05674H8.04413H8.03153H8.01893H8.00633H7.99373H7.98112H7.96852H7.95592H7.94332H7.93071H7.91811H7.90551H7.89291H7.88031H7.8677H7.8551H7.8425H7.8299H7.81729H7.80469H7.79209H7.77949H7.76689H7.75428H7.74168H7.72908H7.71648H7.70387H7.69127H7.67867H7.66607H7.65347H7.64086H7.62826H7.61566H7.60306H7.59045H7.57785H7.56525H7.55265H7.54005H7.52744H7.51484H7.50224H7.48964H7.47703H7.46443H7.45183H7.43923H7.42663H7.41402H7.40142H7.38882H7.37622H7.36361H7.35101H7.33841H7.32581H7.31321H7.3006H7.288H7.2754H7.2628H7.25019H7.23759H7.22499H7.21239H7.19979H7.18718H7.17458H7.16198H7.14938H7.13677H7.12417H7.11157H7.09897H7.08637H7.07376H7.06116H7.04856H7.03596H7.02335H7.01075H6.99815H6.98555H6.97295H6.96034H6.94774H6.93514H6.92254H6.90993H6.89733H6.88473H6.87213H6.85953H6.84692H6.83432H6.82172H6.80912H6.79651H6.78391H6.77131H6.75871H6.74611H6.7335H6.7209H6.7083H6.6957H6.68309H6.67049H6.65789H6.64529H6.63269H6.62008H6.60748H6.59488H6.58228H6.56967H6.55707H6.54447H6.53187H6.51927H6.50666H6.49406H6.48146H6.46886H6.45625H6.44365H6.43105H6.41845H6.40585H6.39324H6.38064H6.36804H6.35544H6.34283H6.33023H6.31763H6.30503H6.29243H6.27982H6.26722H6.25462H6.24202H6.22941H6.21681H6.20421H6.19161H6.17901H6.1664H6.1538H6.1412H6.1286H6.11599H6.10339H6.09079H6.07819H6.06559H6.05298H6.04038H6.02778H6.01518H6.00257H5.98997H5.97737H5.96477H5.95217H5.93956H5.92696H5.91436H5.90176H5.88915H5.87655H5.86395H5.85135H5.83875H5.82614H5.81354H5.80094H5.78834H5.77573H5.76313H5.75053H5.73793H5.72533H5.71272H5.70012H5.68752H5.67492H5.66231H5.63364L5.63092 8.33594C5.58438 8.33593 5.5192 8.33593 5.45253 8.34597L5.45253 8.34596L5.45174 8.34609C5.18559 8.3879 4.98029 8.57259 4.95479 8.8375C4.92961 9.09908 5.08516 9.315 5.33802 9.3918M12.2963 8.46957L5.33802 9.3918M5.33802 9.3918C5.4619 9.43214 5.59267 9.43211 5.67592 9.43209C5.67778 9.43209 5.67962 9.43209 5.68143 9.43209H5.68513H5.68883H5.69252H5.69622H5.69991H5.70361H5.7073H5.711H5.71469H5.71839H5.72208H5.72578H5.72947H5.73317H5.73686H5.74055H5.74425H5.74794H5.75163H5.75532H5.75902H5.76271H5.7664H5.77009H5.77378H5.77747H5.78117H5.78486H5.78855H5.79224H5.79593H5.79962H5.80331H5.807H5.81069H5.81438H5.81807H5.82176H5.82544H5.82913H5.83282H5.83651H5.8402H5.84389H5.84757H5.85126H5.85495H5.85864H5.86232H5.86601H5.8697H5.87338H5.87707H5.88076H5.88444H5.88813H5.89181H5.8955H5.89918H5.90287H5.90655H5.91024H5.91392H5.91761H5.92129H5.92498H5.92866H5.93234H5.93603H5.93971H5.94339H5.94708H5.95076H5.95444H5.95813H5.96181H5.96549H5.96917H5.97286H5.97654H5.98022H5.9839H5.98758H5.99126H5.99495H5.99863H6.00231H6.00599H6.00967H6.01335H6.01703H6.02071H6.02439H6.02807H6.03175H6.03543H6.03911H6.04279H6.04647H6.05015H6.05383H6.0575H6.06118H6.06486H6.06854H6.07222H6.0759H6.07957H6.08325H6.08693H6.09061H6.09429H6.09796H6.10164H6.10532H6.10899H6.11267H6.11635H6.12003H6.1237H6.12738H6.13105H6.13473H6.13841H6.14208H6.14576H6.14943H6.15311H6.15679H6.16046H6.16414H6.16781H6.17149H6.17516H6.17884H6.18251H6.18619H6.18986H6.19354H6.19721H6.20089H6.20456H6.20823H6.21191H6.21558H6.21926H6.22293H6.2266H6.23028H6.23395H6.23762H6.2413H6.24497H6.24864H6.25232H6.25599H6.25966H6.26333H6.26701H6.27068H6.27435H6.27803H6.2817H6.28537H6.28904H6.29271H6.29639H6.30006H6.30373H6.3074H6.31107H6.31475H6.31842H6.32209H6.32576H6.32943H6.3331H6.33677H6.34045H6.34412H6.34779H6.35146H6.35513H6.3588H6.36247H6.36614H6.36981H6.37348H6.37715H6.38082H6.38449H6.38817H6.39184H6.39551H6.39918H6.40285H6.40652H6.41019H6.41386H6.41753H6.4212H6.42487H6.42854H6.43221H6.43588H6.43955H6.44322H6.44689H6.45055H6.45422H6.45789H6.46156H6.46523H6.4689H6.47257H6.47624H6.47991H6.48358H6.48725H6.49092H6.49459H6.49826H6.50193H6.50559H6.50926H6.51293H6.5166H6.52027H6.52394H6.52761H6.53128H6.53495H6.53862H6.54228H6.54595H6.54962H6.55329H6.55696H6.56063H6.5643H6.56797H6.57163H6.5753H6.57897H6.58264H6.58631H6.58998H6.59365H6.59732H6.60098H6.60465H6.60832H6.61199H6.61566H6.61933H6.623H6.62666H6.63033H6.634H6.63767H6.64134H6.64501H6.64868H6.65235H6.65601H6.65968H6.66335H6.66702H6.67069H6.67436H6.67803H6.68169H6.68536H6.68903H6.6927H6.69637H6.70004H6.70371H6.70738H6.71105H6.71471H6.71838H6.72205H6.72572H6.72939H6.73306H6.73673H6.7404H6.74407H6.74774H6.7514H6.75507H6.75874H6.76241H6.76608H6.76975H6.77342H6.77709H6.78076H6.78443H6.7881H6.79177H6.79544H6.79911H6.80278H6.80645H6.81012H6.81379H6.81746H6.82113H6.8248H6.82847H6.83214H6.83581H6.83948H6.84315H6.84682H6.85049H6.85416H6.85783H6.8615H6.86517H6.86884H6.87251H6.87618H6.87985H6.88352H6.88719H6.89086H6.89453H6.8982H6.90188H6.90555H6.90922H6.91289H6.91656H6.92023H6.9239H6.92757H6.93125H6.93492H6.93859H6.94226H6.94593H6.94961H6.95328H6.95695H6.96062H6.96429H6.96797H6.97164H6.97531H6.97898H6.98266H6.98633H6.99H6.99368H6.99735H7.00102H7.0047H7.00837H7.01204H7.01572H7.01939H7.02306H7.02674H7.03041H7.03408H7.03776H7.04143H7.04511H7.04878H7.05246H7.05613H7.0598H7.06348H7.06715H7.07083H7.0745H7.07818H7.08185H7.08553H7.08921H7.09288H7.09656H7.10023H7.10391H7.10758H7.11126H7.11494H7.11861H7.12229H7.12597H7.12964H7.13332H7.137H7.14067H7.14435H7.14803H7.15171H7.15538H7.15906H7.16274H7.16642H7.1701H7.17377H7.17745H7.18113H7.18481H7.18849H7.19217H7.19585H7.19952H7.2032H7.20688H7.21056H7.21424H7.21792H7.2216H7.22528H7.22896H7.23264H7.23632H7.24H7.24368H7.24737H7.25105H7.25473H7.25841H7.26209H7.26577H7.26945H7.27314H7.27682H7.2805H7.28418H7.28787H7.29155H7.29523H7.29891H7.3026H7.30628H7.30996H7.31365H7.31733H7.32102H7.3247H7.32838H7.33207H7.33575H7.33944H7.34312H7.34681H7.35049H7.35418H7.35786H7.36155H7.36524H7.36892H7.37261H7.3763H7.37998H7.38367H7.38736H7.39104H7.39473H7.39842H7.40211H7.40579H7.40948H7.41317H7.41686H7.42055H7.42424H7.42793H7.43161H7.4353H7.43899H7.44268H7.44637H7.45006H7.45375H7.45744H7.46114H7.46483H7.46852H7.47221H7.4759H7.47959H7.48328H7.48698H7.49067H7.49436H7.49805H7.50175H7.50544H7.50913H7.51283H7.51652H7.52021H7.52391H7.5276H7.5313H7.53499H7.53869H7.54238H7.54608H7.54977H7.55347H7.55717H7.56086H7.56456H7.56585H7.56714H7.56842H7.56971H7.571H7.57229H7.57358H7.57486H7.57615H7.57744H7.57873H7.58002H7.58131H7.58259H7.58388H7.58517H7.58646H7.58775H7.58904H7.59032H7.59161H7.5929H7.59419H7.59548H7.59676H7.59805H7.59934H7.60063H7.60192H7.60321H7.60449H7.60578H7.60707H7.60836H7.60965H7.61094H7.61222H7.61351H7.6148H7.61609H7.61738H7.61866H7.61995H7.62124H7.62253H7.62382H7.62511H7.62639H7.62768H7.62897H7.63026H7.63155H7.63283H7.63412H7.63541H7.6367H7.63799H7.63928H7.64056H7.64185H7.64314H7.64443H7.64572H7.64701H7.64829H7.64958H7.65087H7.65216H7.65345H7.65473H7.65602H7.65731H7.6586H7.65989H7.66118H7.66246H7.66375H7.66504H7.66633H7.66762H7.66891H7.67019H7.67148H7.67277H7.67406H7.67535H7.67663H7.67792H7.67921H7.6805H7.68179H7.68308H7.68436H7.68565H7.68694H7.68823H7.68952H7.69081H7.69209H7.69338H7.69467H7.69596H7.69725H7.69853H7.69982H7.70111H7.7024H7.70369H7.70498H7.70626H7.70755H7.70884H7.71013H7.71142H7.71271H7.71399H7.71528H7.71657H7.71786H7.71915H7.72043H7.72172H7.72301H7.7243H7.72559H7.72688H7.72816H7.72945H7.73074H7.73203H7.73332H7.73461H7.73589H7.73718H7.73847H7.73976H7.74105H7.74233H7.74362H7.74491H7.7462H7.74749H7.74878H7.75006H7.75135H7.75264H7.75393H7.75522H7.7565H7.75779H7.75908H7.76037H7.76166H7.76295H7.76423H7.76552H7.76681H7.7681H7.76939H7.77068H7.77196H7.77325H7.77454H7.77583H7.77712H7.7784H7.77969H7.78098H7.78227H7.78356H7.78485H7.78613H7.78742H7.78871H7.79H7.79129H7.79258H7.79386H7.79515H7.79644H7.79773H7.79902H7.8003H7.80159H7.80288H7.80417H7.80546H7.80675H7.80803H7.80932H7.81061H7.8119H7.81319H7.81448H7.81576H7.81705H7.81834H7.81963H7.82092H7.8222H7.82349H7.82478H7.82607H7.82736H7.82865H7.82993H7.83122H7.83251H7.8338H7.83509H7.83637H7.83766H7.83895H7.84024H7.84153H7.84282H7.8441H7.84539H7.84668H7.84797H7.84926H7.85055H7.85183H7.85312H7.85441H7.8557H7.85699H7.85827H7.85956H7.86085H7.86214H7.86343H7.86472H7.866H7.86729H7.86858H7.86987H7.87116H7.87245H7.87373H7.87502H7.87631H7.8776H7.87889H7.88017H7.88146H7.88275H7.88404H7.88533H7.88662H7.8879H7.88919H7.89048H7.89177H7.89306H7.89435H7.89563H7.89692H7.89821H7.8995H7.90079H7.90207H7.90336H7.90465H7.90594H7.90723H7.90852H7.9098H7.91109H7.91238H7.91367H7.91496H7.91624H7.91753H7.91882H7.92011H7.9214H7.92269H7.92397H7.92526H7.92655H7.92784H7.92913H7.93042H7.9317H7.93299H7.93428H7.93557H7.93686H7.93814H7.93943H7.94072H7.94201H7.9433H7.94459H7.94587H7.94716H7.94845H7.94974H7.95103H7.95232H7.9536H7.95489H7.95618H7.95747H7.95876H7.96004H7.96133H7.96262H7.96391H7.9652H7.96649H7.96777H7.96906H7.97035H7.97164H7.97293H7.97422H7.9755H7.97679H7.97808H7.97937H7.98066H7.98194H7.98323H7.98452H7.98581H7.9871H7.98839H7.98967H7.99096H7.99225H7.99354H7.99483H7.99612H7.9974H7.99869H7.99998H8.00127H8.00256H8.00384H8.00513H8.00642H8.00771H8.009H8.01029H8.01157H8.01286H8.01415H8.01544H8.01673H8.01801H8.0193H8.02059H8.02188H8.02317H8.02446H8.02574H8.02703H8.02832H8.02961H8.0309H8.03219H8.03347H8.03476H8.03605H8.03734H8.03863H8.03991H8.0412H8.04249H8.04378H8.04507H8.04636H8.04764H8.04893H8.05022H8.05151H8.0528H8.05409H8.05537H8.05666H8.05795H8.05924H8.06053H8.06181H8.0631H8.06439H8.06568H8.06697H8.06826H8.06954H8.07083H8.07212H8.07341H8.0747H8.07599H8.07727H8.07856H8.07985H8.08114H8.08243H8.08371H8.085H8.08629H8.08758H8.08887H8.09016H8.09144H8.09273H8.09402H8.09531H8.0966H8.09789H8.09917H8.10046H8.10175H8.10304H8.10433H8.10561H8.1069H8.10819H8.10948H8.11077H8.11206H8.11334H8.11463H8.11592H8.11721H8.1185H8.11978H8.12107H8.12236H8.12365H8.12494H8.12623H8.12751H8.1288H8.13009H8.13138H8.13267H8.13396H8.13524H8.13653H8.13782H8.13911H8.1404H8.14168H8.14297H8.14426H8.14555H8.14684H8.14813H8.14941H8.1507H8.15199H8.15328H8.15457H8.15586H8.15714H8.15843H8.15972H8.16101H8.1623H8.16358H8.16487H8.16616H8.16745H8.16874H8.17003H8.17131H8.1726H8.17389H8.17518H8.17647H8.17776H8.17904H8.18033H8.18162H8.18291H8.1842H8.18548H8.18677H8.18806H8.18935H8.19064H8.19193H8.19321H8.1945H8.19579H8.19708H8.19837H8.19966H8.20094H8.20223H8.20352H8.20481H8.2061H8.20738H8.20867H8.20996H8.21125H8.21254H8.21383H8.21511H8.2164H8.21769H8.21898H8.22027H8.22155H8.22284H8.22413H8.8837H9.54328H9.54821H9.55313H9.55806H9.56299H9.56792H9.57285H9.57778H9.58271H9.58765H9.59258H9.59751H9.60244H9.60737H9.6123H9.61723H9.62217H9.6271H9.63203H9.63696H9.6419H9.64683H9.65176H9.6567H9.66163H9.66656H9.6715H9.67643H9.68137H9.6863H9.69124H9.69617H9.70111H9.70604H9.71098H9.71591H9.72085H9.72579H9.73072H9.73566H9.7406H9.74553H9.75047H9.75541H9.76035H9.76528H9.77022H9.77516H9.7801H9.78504H9.78998H9.79491H9.79985H9.80479H9.80973H9.81467H9.81961H9.82455H9.82949H9.83443H9.83937H9.84431H9.84925H9.85419H9.85913H9.86408H9.86902H9.87396H9.8789H9.88384H9.88878H9.89373H9.89867H9.90361H9.90855H9.9135H9.91844H9.92338H9.92833H9.93327H9.93821H9.94316H9.9481H9.95304H9.95799H9.96293H9.96788H9.97282H9.97777H9.98271H9.98766H9.9926H9.99755H10.0025H10.0074H10.0124H10.0173H10.0223H10.0272H10.0322H10.0371H10.0421H10.047H10.052H10.0569H10.0618H10.0668H10.0717H10.0767H10.0816H10.0866H10.0915H10.0965H10.1014H10.1064H10.1113H10.1163H10.1212H10.1262H10.1311H10.1361H10.141H10.146H10.1509H10.1559H10.1608H10.1658H10.1707H10.1757H10.1806H10.1856H10.1905H10.1955H10.2004H10.2054H10.2103H10.2153H10.2202H10.2252H10.2301H10.2351H10.24H10.245H10.2499H10.2549H10.2598H10.2648H10.2697H10.2747H10.2796H10.2846H10.2895H10.2945H10.2994H10.3044H10.3093H10.3143H10.3193H10.3242H10.3292H10.3341H10.3391H10.344H10.349H10.3539H10.3589H10.3638H10.3688H10.3737H10.3787H10.3836H10.3886H10.3936H10.3985H10.4035H10.4084H10.4134H10.4183H10.4233H10.4282H10.4332H10.4381H10.4431H10.448H10.453H10.458H10.4629H10.4679H10.4728H10.4778H10.4827H10.4877H10.4926H10.4976H10.5026H10.5075H10.5125H10.5174H10.5224H10.5273H10.5323H10.5372H10.5422H10.5472H10.5521H10.5571H10.562H10.567H10.5719H10.5769H10.5818H10.5868H10.5918H10.5967H10.6017H10.6066H10.6116H10.6165H10.6215H10.6264H10.6314H10.6364H10.6413H10.6463H10.6512H10.6562H10.6611H10.6661H10.6711H10.676H10.681H10.6859H10.6909H10.6958H10.7008H10.7058H10.7107H10.7157H10.7206H10.7256H10.7305H10.7355H10.7404H10.7454H10.7504H10.7553H10.7603H10.7652H10.7702H10.7751H10.7801H10.7851H10.79H10.795H10.7999H10.8049H10.8098H10.8148H10.8198H10.8247H10.8297H10.8346H10.8396H10.8445H10.8495H10.8545H10.8594H10.8644H10.8693H10.8743H10.8792H10.8842H10.8892H10.8941H10.8991H10.904H10.909H10.9139H10.9189H10.9239H10.9288H10.9338H10.9387H10.9437L10.9486 9.43209H10.9536H10.9585H10.9635H10.9685H10.9734H10.9784H10.9833H10.9883H10.9932H10.9982H11.0032H11.0081H11.0131H11.018H11.023H11.0279H11.0329H11.0378H11.0428H11.0478H11.0527H11.0577H11.0626H11.0676H11.0725H11.0775H11.0825H11.0874H11.0924H11.0973H11.1023H11.1072H11.1122H11.1171H11.1221H11.127H11.132H11.137H11.1419H11.1469H11.1518H11.1568H11.1617H11.1667H11.1716H11.1766H11.1816H11.1865H11.1915H11.1964H11.2014H11.2063H11.2113H11.2162H11.2212H11.2261H11.2311H11.236H11.241H11.246H11.2509H11.2559H11.2608H11.2658H11.2707H11.2757H11.2806H11.2856H11.2905H11.2955H11.3004H11.3054H11.3103H11.3153H11.3202H11.3252H11.3302H11.3351H11.3401H11.345H11.35H11.3549H11.3599H11.3648H11.3698H11.3747H11.3797H11.3846H11.3896H11.3945H11.3995H11.4044H11.4094H11.4143H11.4193H11.4242H11.4292H11.4341H11.4391H11.444H11.449H11.4539H11.4589H11.4638H11.4688H11.4737H11.4787H11.4836H11.4886H11.4935H11.4985H11.5034H11.5084H11.5133H11.5183H11.5232H11.5282H11.5331H11.5381H11.543H11.5479H11.5529H11.5578H11.5628H11.5677H11.5727H11.5776H11.5826H11.5875H11.5925H11.5974H11.6024H11.6073H11.6123H11.6172H11.6221H11.6271H11.632H11.637H11.6419H11.6469H11.6518H11.6568H11.6617H11.6666H11.6716H11.6765H11.6815H11.6864H11.6914H11.6963H11.7013H11.7062H11.7111H11.7161H11.721H11.726H11.7309H11.7358H11.7408H11.7457H11.7507H11.7556H11.7606H11.7655H11.7704H11.7754H11.7803H11.7853H11.7902H11.7951H11.8001H11.805H11.81H11.8149H11.8198H11.8248H11.8297H11.8347H11.8396H11.8445H11.8495H11.8544H11.8593H11.8643H11.8692H11.8742H11.8791H11.884H11.889H11.8939H11.8988H11.9038H11.9087H11.9136H11.9186H11.9235H11.9285H11.9334H11.9383H11.9433H11.9482H11.9531H11.9581H11.963H11.9679H11.9729H11.9778H11.9827H11.9877H11.9926H11.9975H12.0025H12.0074H12.0123H12.0173H12.0222H12.0271H12.032H12.037H12.0419H12.0468H12.0518H12.0567H12.0616H12.0666H12.0715H12.0764L5.33802 9.3918Z" fill="#3D465B" stroke="#3D465B" stroke-width="0.25"/>
<defs>
<clipPath id="clip0_730_3261">
<rect width="22" height="22" fill="white"/>
</clipPath>
</defs>
</svg>
