<svg width="22" height="22" viewBox="0 0 22 22" fill="none" xmlns="http://www.w3.org/2000/svg">
<path d="M22 10.3139C22 10.7713 22 11.2287 22 11.6861C21.9891 11.7406 21.9673 11.795 21.9673 11.8495C21.8911 12.3614 21.8475 12.8733 21.7386 13.3743C20.8564 17.6436 17.2079 21.1287 12.9168 21.8257C12.5139 21.8911 12.1 21.9347 11.6861 22C11.2287 22 10.7713 22 10.3139 22C10.2703 21.9891 10.2158 21.9673 10.1723 21.9673C9.67129 21.8911 9.15941 21.8475 8.66931 21.7495C4.4 20.9 0.871287 17.2297 0.174257 12.9386C0.108911 12.5248 0.0544554 12.1 0 11.6861C0 11.2287 0 10.7713 0 10.3139C0.0653465 9.82376 0.119802 9.33366 0.217822 8.85446C1.03465 4.46535 4.69406 0.893069 9.08317 0.174257C9.48614 0.108911 9.9 0.0653465 10.3139 0C10.7713 0 11.2287 0 11.6861 0C11.7406 0.0108911 11.795 0.0217822 11.8495 0.0326733C12.4158 0.119802 12.9822 0.174257 13.5376 0.294059C17.7743 1.26337 21.1069 4.81386 21.8257 9.09406C21.902 9.50792 21.9455 9.91089 22 10.3139ZM17.9812 17.7198C21.2485 14.4743 21.902 8.59307 18.1772 4.46535C14.4743 0.370297 8.04851 0.217822 4.13861 4.1495C0.206931 8.09208 0.511881 14.1802 4.01881 17.7198C5.43465 14.8228 7.72178 13.1455 10.9891 13.1347C14.2564 13.1347 16.5545 14.8119 17.9812 17.7198ZM5.07525 18.6673C8.58218 21.4772 13.7228 21.2921 16.9139 18.6564C16.1188 16.1188 13.5485 14.3109 10.8257 14.4089C7.76535 14.5069 5.69604 16.6525 5.07525 18.6673Z" fill="#3D465B"/>
<path d="M6.90503 7.54822C6.90503 5.28288 8.74562 3.44228 11.0001 3.45317C13.2545 3.45317 15.0951 5.30466 15.0842 7.55911C15.0842 9.81357 13.2545 11.6433 11.0001 11.6433C8.74562 11.6433 6.90503 9.81357 6.90503 7.54822ZM13.7991 7.54822C13.7991 6.00169 12.5466 4.74921 11.0001 4.73832C9.45354 4.73832 8.19018 6.00169 8.19018 7.54822C8.19018 9.10565 9.45354 10.3581 11.011 10.3472C12.5575 10.3472 13.81 9.08387 13.7991 7.54822Z" fill="#3D465B"/>
</svg>
